<?xml version="1.0" encoding="UTF-8"?>
<svg id="Layer_1" data-name="Layer 1" xmlns="http://www.w3.org/2000/svg" version="1.1" viewBox="0 0 351.7 309.9">
  <defs>
    <style>
      .cls-1 {
        fill: none;
      }

      .cls-1, .cls-2, .cls-3 {
        stroke-width: 0px;
      }

      .cls-2 {
        fill: #010101;
      }

      .cls-3 {
        fill: #fff;
      }
    </style>
  </defs>
  <g>
    <path class="cls-3" d="M341.3,158.5c-1.1-1.1-2.7-5.1-4.9-12.2,0-.1,0-.3,0-.4-1-5.8-2.8-10.2-5.3-13.3v-.4c-.1,0-4.1-35.8-4.1-35.8v-.4c-.7-7.7-3.8-13.3-9.2-16.8l-6.3-3.8c-.6-1.3-1.5-2.4-2.7-3.4-2.8-2.3-7-3.6-12.8-4-.3,0-.6,0-.9-.2-.7-.2-1.5-.3-2.2-.4-11.8-2-25.1-2.8-40-2.3l-14.3-11.7v-.2c-.2-3.3-1.1-5.4-2.9-6.2-.6-2.9-1.5-5.2-2.6-6.8v-.7c0,0-.6,0-.6,0-1.4-1.7-3.1-2.6-5.1-2.8-4.2-.5-6.4,1.8-6.8,6.9-16.1-6.7-32.2-11.3-48.4-13.6-.7.1-1.4.2-2,.4-13.2-6.3-27.8-12-43.8-17.1,0-.8,0-1.6-.1-2.2-6.4-3.5-11.6-3.1-15.5,1.4-13.1-1.9-24.3-.9-33.4,2.9,0,.2-.2.3-.4.4-2.9,1.6-5.1,4-6.4,7-1.2,2.8-1.9,6.5-2,11.1l-1.2,56.1-1.4,65.7-13.7,1.2h-.1c-3.5.6-5.7,2.2-6.7,5.1-.4.1-.7.3-1,.5-1.6,1-3,2.5-4.3,4.4h-12c-.3,0-.5,0-.8.1-4.4,1.2-7.3,8.3-8.8,21.2,0,6.8.6,12.2,1.6,16.2,1.6,5,3.6,7.8,6.1,8.4-11.2.7-16.8,1.5-16.8,2.3,0,1.5,16.1,2.8,48.4,3.8,32.3,1.1,71.3,1.6,116.9,1.6s31.3,0,45.7-.1c26.5-.3,50.2-.8,71.1-1.5,32.3-1,48.5-2.3,48.5-3.8s-15.2-2.6-45.6-3.7c6.7-4.5,10.9-10.3,12.6-17.5l23.5-.7c7.5.2,11.6-2.8,12.4-9.1l.2-17c.1-3.2-.4-6.2-1.6-9ZM182.2,66.8c-2.1-.2-3.7-1.2-4.9-3.2l-1.2-7.2c12.4,2.2,23.5,5.3,33.4,9.3l-27.3,1.1ZM136.4,22.6c7.2,2.3,13.7,4.7,19.4,7l-19.4-7ZM248.6,65.3h-7.4l-2.2-7.2,9.5,7.2ZM235.8,50.6c.4.7.7,1.8.9,3.1v7.2l-.7-1.3-1.4-2.8c.6-1.4,1-3.4,1.2-6.2ZM75.3,211.2c1-1.5,1.9-3.7,2.8-6.7h7.7c.8,2.6,2,4.7,3.6,6.4-4.8,0-9.5.2-14.1.3ZM142.4,210.1c2.1-2,3.7-4.8,4.7-8.4l10.2-.4c.9,3.3,2.2,6.2,4.1,8.7-6.5,0-12.8,0-19,0ZM220.2,210.3h-3.7c1.4-2.1,2.6-4.4,3.7-6.9.3-.7.6-1.5,1-2.3l29.1-.4c2.1,4.1,4.4,7.5,6.9,10.2-11.6-.2-23.9-.4-36.9-.5Z"/>
    <g id="Layer0_0_FILL" data-name="Layer0 0 FILL">
      <path class="cls-2" d="M238.5,53.6v-.2c-.2-3.3-1.1-5.4-2.9-6.2-1.4-6.5-4.2-10-8.4-10.4-4.2-.5-6.4,1.8-6.8,6.9-16.1-6.7-32.2-11.3-48.4-13.6-.7.1-1.4.2-2,.4-13.2-6.3-27.8-12-43.8-17.1,0-.8,0-1.6-.1-2.2-6.4-3.5-11.6-3.1-15.5,1.4-13.1-1.9-24.3-.9-33.4,2.9,0,.2-.2.3-.4.4-2.9,1.6-5.1,4-6.4,7-1.2,2.8-1.9,6.5-2,11.1l-1.2,56.1-1.4,65.7-13.7,1.2h-.1c-3.5.6-5.7,2.2-6.7,5.1-.4.1-.7.3-1,.5-1.6,1-3,2.5-4.3,4.4h-12c-.3,0-.5,0-.8.1-4.4,1.2-7.3,8.3-8.8,21.2,0,6.8.6,12.2,1.6,16.2,1.6,5,3.6,7.8,6.1,8.4-11.2.7-16.8,1.5-16.8,2.3,0,1.5,16.1,2.8,48.4,3.8,32.3,1.1,71.3,1.6,116.9,1.6s31.3,0,45.7-.1c26.5-.3,50.2-.8,71.1-1.5,32.3-1,48.5-2.3,48.5-3.8s-15.2-2.6-45.6-3.7c6.7-4.5,10.9-10.3,12.6-17.5l23.5-.7c7.5.2,11.6-2.8,12.4-9.1l.2-17c.1-3.2-.4-6.2-1.6-9-1.1-1.1-2.7-5.1-4.9-12.2,0-.1,0-.3,0-.4-1-5.8-2.8-10.2-5.3-13.3v-.4c-.1,0-4.1-35.8-4.1-35.8v-.4c-.7-7.7-3.8-13.3-9.2-16.8l-6.3-3.8c-.6-1.3-1.5-2.4-2.7-3.4-2.8-2.3-7-3.6-12.8-4-.3,0-.6,0-.9-.2-.7-.2-1.5-.3-2.2-.4-11.8-2-25.1-2.8-40-2.3l-14.3-11.7M241.2,65.3l-2.2-7.2,9.5,7.2h-7.3M307.5,80.4c.4.2.8.3,1.2.5,3.5,1.6,6.1,3.3,8,5.2,2.5,2.5,4.1,5.8,4.9,9.8,1.2,6.1,2.1,13,2.7,20.7.3,4.4.7,10.9,1.1,19.3,2.2,1.4,3.4,4.2,3.6,8.5.6,4.8,2.5,8.7,5.4,11.9-6.6-1.6-13.3-3-20-4.2-.1,0-.3,0-.4,0-20.3-3.8-41-6-62.2-6.8-9.8-.2-20.3.1-31.5,1.1-4.1.3-8.2.8-12.4,1.3h0c0-.1-.3-.4-.3-.4-7.9-15.8-17.5-22.5-28.6-20.1-.3,0-.5.1-.8.2-3.6,1.2-6.7,3.1-9.5,5.8-9.6,9.2-14.5,27.3-14.9,54.2v1.3c0,.1,0,.2,0,.4l-55.6,3.9c-.3-3.7-.4-7.2-.4-10.4,0-9.4.9-16.7,3-22,.8-2.1,1.8-3.9,2.9-5.3l43.8-6.4c-1.1,1.7-1.7,4.1-2,7.3l-30.1,4.7,4.3,5.7,4.2,15.5,22.8-1.5c.8-9.4,1.7-16.8,2.6-22.2v-.7c2.5-12.1,6.8-21.9,13.1-29.4,7.1-8.5,16.7-14.3,28.9-17.4,8.1-1.2,16.8-1.4,26-.6,1,0,1.9,0,2.9,0,7.7.3,14.9,1.1,21.6,2.3l-.4-.2c-1-.2-1.7-1-2.1-2.6l-.6-40.9h1.7l3.4,15.6c.6,2.9,1.9,4.1,4.1,3.6.1-1.4-.1-2.4-.8-3.2l-1.5-1.2-3.4-14.8c3.8,0,7.6,0,11.1,0l13.7,10.6c1.4,3.7,3.1,5.2,5.1,4.6.8-1.6.3-3.3-1.5-5.2l-13.2-9.8c13.8.4,25.6,1.4,35.4,3.2.8,0,1.6.2,2.4.4h.6c6.2,0,10.1,2.6,11.7,7.7M250.2,200.6c2.1,4.1,4.4,7.5,6.9,10.2-11.6-.2-23.9-.4-36.9-.5h-3.7c1.4-2.1,2.6-4.4,3.7-6.9.3-.7.6-1.5,1-2.3l29-.4M334.3,160.2h0c1.8,1.8,2.6,7.5,2.3,17.3v.2c.6,7.6-2,11.6-8,11.8l-22.7-1.4c-24.3-1.5-50.3-1.7-77.9-.7-.3,0-.6,0-.9,0-.2,0-.4,0-.6,0-2.5-.3-4.6-1-6.3-1.9-3.1-1.7-5.1-4.2-6-7.6v-.3c-.2-6.8-1.7-15.4-4.5-25.8,3.5-.5,7-1,10.5-1.4,23-2.6,44.5-2.5,64.7.3,18,2.5,34.5,5.7,49.4,9.5M107.8,16.8c.3,0,.7.1,1,.2l-1.7,93.5-2.9.7,1-37.2c.3-4.6-1-6.2-3.8-4.8h-.1l-10.6,5.4c-2.7,2.5-4.1,5.5-4.1,9v.6c-.1,0-1.3,32.1-1.3,32.1-.2,3.7.5,5.6,1.9,5.8-2.6,0-4-1.8-4.2-5.5l-10.4,2.6,2-81.6v-.7c.7-9.8,3.2-15.7,7.7-17.8l1.4-.5c8.9-2.3,16.9-2.9,24.3-1.8M112.6,17.8l.7-1.3c.8-1.4,2.1-2.4,4.1-2.9,1.9-.5,3.5-.3,4.9.8v3.7c0,0-1.2,72.1-1.2,72.1l-.3,16.8-.4,26.1v7.5c-.1,0-.1.6-.1.6,0,.1,0,.2.1.3.9,1.9,2.2,2.8,3.8,2.6,2.2,1.1,2.5,3.5,1.2,7.1-4.5.5-8-.3-10.5-2.4,0-.1-.1-.2-.2-.2-1.5-1.3-2.6-3.1-3.4-5.4-.1-.5-.3-1-.4-1.5,0-.2,0-.5-.1-.7l1.9-123.1M163.4,32.9c-.7.3-1.3.6-1.9,1l-10.9,2.6c2.1.9,3.9,2,5.6,3.4,2.8-.8,5.6-1.5,8.5-2,1.9-1.8,3.9-3,6-3.7h1c18.5,3.3,35,8,49.4,14.3,2.2,9,5.9,12.1,11.1,9.2.1.2.3.5.5.7,1.4,2.2,2.6,4.6,3.8,7.2-15.6-10.5-33.6-16.4-53.8-18-3.2,0-5.4-.2-6.8-.4-2.3-.3-4-1-5-2l-4.4-4.3,1.9,4.3,2.9,21.3c.6,2.4,1.9,3.9,4.1,4.5,1.7.5,4.2.6,7.6.2h.3c12.4-.9,23.9-1.5,34.7-1.9,5.1-.2,10.1-.3,14.9-.4,1.3,0,2.6,0,3.9,0v22.4c-12.8-1.6-25.4-2-37.7-1.2-6.8.5-13.5,1.3-20.1,2.6v-10.1c-4.7-1.1-7.7.1-9,3.7l.4,7.6-7.3-7.8c3.6-.7,4.6-4.2,3-10.3l-15.3-3.7.4.4-2.3-.9,21.7,25.6v2.7c-.1,0-.2,0-.3,0l-3.5-4.4-5.1,1.3c2.7.2,4.3,2,4.7,5.5l.5,15.2c-2.9,2.1-5.5,4.5-7.8,7.5l-6.1,1.5c-1.9,0-3-1-3.4-3.2,0-.2,0-.4,0-.6l-.7-14.2v-.9c.2-4.8,2-7.7,5.4-8.9l-19.8,5.1.4-18.5-1.9,4.7-1.2,37.9c.1,2.9,1,4.7,2.6,5.3.4.1.9.2,1.3.2l20.9-4.5c-.6.9-1.3,1.9-1.9,3l-17,3.6c-4.9,1.3-7.4-.7-7.5-5.9v-24.8l-5.8,1.5,2.1-86.7c15.2,4.4,27.6,8.9,37.3,13.4M177.3,63.6l-1.2-7.2c12.4,2.2,23.5,5.3,33.4,9.3l-27.3,1.1c-2.1-.1-3.7-1.2-4.9-3.1M231.8,50c0,3.5-1.1,4.5-3.1,2.9.3,1.1,1.1,1.6,2.3,1.6-4.2.5-6.7-2.4-7.6-8.9-.1-3.7,1.2-5.7,3.9-6.2,2.4.3,4.3,2.7,5.6,7.3l-2.2-.3c-1.8.6-2.9,1.2-3.2,2,.8,1.9,1.9,2,3.2.5l3.1.3c0,.4,0,.8,0,1.2l-2.2-.4M235.8,50.6c.4.7.7,1.8.9,3.1v7.4l-2.1-4.3c.6-1.4,1-3.4,1.2-6.2M88.1,85.3c0-.6.1-1.2.2-1.7.5-3.6,1.6-6,3.3-7.2l10-4.9h0c1.3-.6,2.2,1.1,2.5,4.9l-.9,33c0,.8-.1,1.5-.3,2.2-.8,2.8-2.4,4.9-4.8,6.3l-1,.3c2.3-1.3,3.5-3.5,3.7-6.4l-13.9,3.9,1.1-30.3M95.1,161.4l3.1-.5c-.6,2-1.2,4-1.6,6.1l-6.2.7c1.3-2.6,2.8-4.7,4.7-6.2M89.4,169.8l6.8-.7c-.8,4.4-1.2,8.8-1.2,13.5l-31.4,2.5c-.8-5.2-.4-9.8,1.3-13.8,1.8-4.3,4.7-6.8,8.7-7.5.1,0,.4,0,.9-.1l3.8-.6c-2.8,1.5-4.8,3.7-6.2,6.4l-5.2.5c-.6.3-1,.8-1.1,1.3,0,.2-.1.5,0,.8l5.5-.6c-.9,2.7-1.2,5.9-1,9.5.6-3.7,1.5-6.9,2.9-9.7l14.5-1.5c-.8,2.8-1.2,6.1-1.2,9.7.7-3.8,1.6-7.1,2.8-10M92.1,161.6c-1.5,1.8-2.7,3.8-3.6,6.2l-13.9,1.5c1.8-2.8,4.1-4.9,7-6.4l10.6-1.3M76.9,160.8c1.3.1,2.4.4,3.4.8-5.1.3-8.9.9-11.5,1.9-6.6,5.1-8.7,13.2-6.2,24.2h-3.6c-.5-13.4-2.5-22.1-5.7-26.3-.5-.5-.9-1-1.4-1.4l25,.7M72.4,155.4l-.8.7v-5.6c.1,0,35.9-6.7,35.9-6.7.8,3.8,2.1,5.5,3.8,5.3l-38.9,6.4M69.9,193.2l5-.4c-2.2-.6-3.6-3-4.3-7.2,2,3.7,3.9,6,5.8,7.1l14.1-1c-1.7-.9-2.9-3.2-3.5-6.9,1.8,3.3,3.5,5.6,5.2,6.7l3.9-.2.2,2.9-26.7,1c-2.2-1.3-3.9-3.7-5.2-7.2,1.5,2.5,3.4,4.2,5.6,5.1M85.8,204.6c.8,2.4,2,4.5,3.6,6.2-4.8.1-9.5.2-14.1.3,1-1.5,1.9-3.7,2.8-6.7h7.7M174.6,85.3c.4,0,.7.2,1,.5.4.3.6.8.6,1.2s-.2.9-.6,1.2c-.3.3-.6.5-1,.5s-.8-.2-1.1-.5c-.3-.3-.4-.8-.4-1.2s.1-.9.4-1.2c.3-.3.7-.5,1.1-.5M173.5,91.5c.3-.3.7-.5,1.1-.5s.7.2,1,.5c.4.3.6.8.6,1.2s-.2.9-.6,1.2c-.3.3-.6.5-1,.5s-.8-.2-1.1-.5c-.3-.3-.4-.8-.4-1.2s.1-.9.4-1.2M173.5,98c.3-.3.7-.5,1.1-.5s.7.2,1,.5c.4.3.6.8.6,1.2s-.2.9-.6,1.2c-.3.3-.6.5-1,.5s-.8-.2-1.1-.5c-.3-.3-.4-.8-.4-1.2s.1-.9.4-1.2M173.5,103.7c.3-.3.7-.5,1.1-.5s.7.2,1,.5c.4.3.6.8.6,1.2s-.2.9-.6,1.2c-.3.3-.6.5-1,.5s-.8-.2-1.1-.5c-.3-.3-.4-.8-.4-1.2s.1-.9.4-1.2M173.5,109.7c.3-.3.7-.5,1.1-.5s.7.2,1,.5c.4.3.6.8.6,1.2s-.2.9-.6,1.2c-.3.3-.6.5-1,.5s-.8-.2-1.1-.5c-.3-.3-.4-.8-.4-1.2s.1-.9.4-1.2M134,125.5l.2-5.8c.2-1.3,1-2.1,2.4-2.2,0,0,.2,0,.3,0,1.1,0,1.6.5,1.6,1.8v4.2c-.1,1.4-.7,2.4-1.7,3l-1,.3c-.3,0-.5,0-.7,0-.6-.2-.9-.6-1-1.2M128.4,145.2c-.5-2.4-2-3.9-4.7-4.4l28.8-5.4c-1,2-2.1,4.3-3.2,6.8l-20.9,2.9M157.3,201.3c.9,3.3,2.2,6.2,4.1,8.7-6.5,0-12.8,0-19,0,2.1-2,3.7-4.8,4.7-8.4l10.2-.4M153.8,102.3c-.3,0-.6.2-.9.4-1.2.7-1.9,1.9-2.1,3.7v12.6c-.2,3.2.9,4.5,3.1,3.9l7.4-2c1.6-1.1,2.5-2.4,2.6-4l-.3-13c0-2.4-1-3.6-2.6-3.7l-7.3,2.1M140.2,79.2c2.7.5,3.9-2.4,3.6-8.7-.5,4.6-2.2,6.6-5.1,6l-4.5-.2c-.5,0-.9-.2-1.2-.4-1-.6-1.6-2.7-1.9-6.4-.2,4.3.6,7.1,2.3,8.4l6.8,1.3M146,35c-3.1.9-5.6,3.4-7.6,7.5-6.9-.2-11,2.1-12.3,7.1v26.1c.7,3.3,3.7,5.3,9.1,5.9,0,2.9,1.2,4,3.4,3.1l6.8-2.5c2.5-1,4.2,0,5.2,3.2l.5,1.1c.4,1.8,1.5,2.5,3.5,2.3.2,0,.5,0,.8-.2l4.7-1.3-14.1-16.2v-2.6c.1,0,19.8,3.2,19.8,3.2l-2.8-21.8c-1-2-2.2-3-3.6-2.8l-15.2,6v.4l.6,19.5c.3,5.7-1.1,8.2-4.3,7.3l-7-1.3c-2.5-.6-3.9-2.3-4.3-5.1l-.4-21.9c0-3.6,2.5-5.8,7.3-6.7h.5c0,0,0,0,0,0,.2,0,.4,0,.6,0,.6,0,1.1.1,1.6.2,1-5.5,3.4-9,7.1-10.6M146.8,38.2c-.2,0-.4,0-.6,0-2.2.7-3.7,2.8-4.5,6.4,1,.9,1.7,2.5,2.1,4.8.5-2.4,1.3-4.4,2.4-5.8,0-.2.1-.3.3-.4,2.2-.9,4.3-1.7,6.4-2.3-2.5-1.7-4.5-2.6-6-2.7M116,17.1c-1.3.2-1.9,1.6-1.8,4.2l-1.7,119.5c1.3,6.2,4.6,9.2,10,8.9-4.5-1.5-7.1-4.9-7.8-10,0-.2,0-.4,0-.7l1.3-121.9M332.5,186.2c1.2-.3,2.1-1.1,2.8-2.1-29.2-7-67.6-8.8-115-5.4-1.1,0-2.3.1-3.4.2,1,1.5,2.1,2.7,3.4,3.6.9.5,1.8,1,2.8,1.3,1.9.6,4.4.7,7.4.4,27.5-1.3,59.6-.5,96.2,2.4h.8c0,0,.1,0,.1,0,.6,0,1,0,1.4,0,1.9-.2,3.1-.3,3.6-.4M325.6,165.8v-4.7c0,0-10.8-2.1-10.8-2.1l-.3,8.2,4.5.7c3.7,0,5.9-.6,6.6-2.1M255.3,159.8c-.5,0-.8.1-1.1.3-.9.4-1.4,1.3-1.4,2.6v3.7c.3,2.9,1.9,4.3,4.6,4.2l17.4,1c-.1-5.2-1.7-8.6-4.6-10.1-6.2-1.1-11.2-1.6-14.8-1.7M272.7,170.1h-.9c-.6-2.8-2-4.9-4-6.4l-8-.9-.8-.9,8.9.9c2.5,1.3,4.1,3.7,4.9,7.3M257.2,161.6c0,0,0,0,.1,0,1,1.1,1.5,2.4,1.6,4v1.5c0,.9-.2,1.7-.5,2.2-.1,0-.8,0-2-.1-1.1-.1-2-1.1-2.5-2.7v-3.3c.4-1.2,1.3-1.7,2.7-1.5.1,0,.3,0,.5,0M296.1,163c0,.1.1.2.2.3,3.4,1.7,7.9,2.8,13.5,3.5v-8.2l-16.3-2.8c.6,3.3,1.4,5.7,2.5,7.2M266.9,129.2c-6.7-3.4-13.5-5.6-20.5-6.6-7.2-1-13.3-.6-18.3,1.3-.7.3-1.2.7-1.4,1.3-.3.7-.3,1.4.1,2.1.7,1.4,2.7,4.7,5.9,9.8.8,1.6,2.1,2.9,3.9,3.7,1.8.9,4,1.4,6.5,1.3l30.8,1.6c1,.1,1.8-.1,2.4-.8.6-.7.7-1.6.3-2.6-1.4-2.9-3-5.4-4.8-7.5-1.7-1.9-3.3-3.2-4.8-3.8M248.9,129.7l-2.1-1.6,3.4.3c1,3.2.6,5.5-1.3,6.7.5-.5.5-2.3,0-5.4M244.2,132.7c2.1,2.6,4.6,4.1,7.2,4.5l7.6.8,1.1,2.9-14.4-1c-4.4-.6-7.9-2.7-10.2-6.2l-4.5-8.1c2.5-.6,5.3-.9,8.3-.9l4.9,8.1M264.3,135.4l-1.2-1.7,2.3.5c.7,3.2,0,4.9-2.4,5.3,1-.6,1.4-1.9,1.4-3.7v-.4M274.7,140.2c0,.6-.2,1.1-1,1.4l-5.1-.2c2.6-.7,3.5-2.9,2.8-6.4l3.2,5.3M282.6,79.2l-1.4-.6c-.3-1.7,0-3,.8-4-2.9,1-4.4,2.6-4.5,5l1.2,25.1c-8.2-5.2-20.9-9.4-38.2-12.7l.3,14.4.2,1.9c.4,2.5,1.1,4,1.9,4.5.2,0,.5,0,.8.2,17.1,3.9,29.6,8.9,37.5,15.1.2.1.3.2.5.4,1.1,1.3,2.4,3.4,3.7,6.3-.5-1.1-.8-2.8-1-5.1l-1.4-48.3c0-1.7.4-3,1.3-3.9l-1.9,1.7M298.6,75.3l.3.2c2.3,1,3.9,3,5,5.9-.2-3.8-2.1-6.3-5.7-7.6l-5,.5c2.1.1,3.9.4,5.4.9M306.8,95.1l1.1-1.9-5.2-1.7-.7-5.6,1.3-.3c0-1.3-.3-2.4-1-3.4-.8-1.1-2.2-1.9-4-2.4l-7.5-1c-2.1,0-3.1,1.1-3,3.3h0c.5-1.2,2.1-1.5,5.1-.8,1,.2,2,.5,3.2.9.5.2,1,.4,1.6.6,1.4,2.3,2.4,5.4,3,9.4,0,.7.2,1.5.3,2.3l3.8,49.7-11.2-1.8c-2.4-1-3.7-3.3-3.9-7l-1.6-4.6c-.3,3-.2,5.5.1,7.6l-2-2.9c.9,5.2,3.1,8.3,6.6,9.2h.2l14.4,2.1-4.8-52.8,4,1M307.4,83.6l.3,4,8,5.5-.6-.4c2.2,2.3,3.4,5.5,3.5,9.4l3.9,41.7c0,1.6-.2,2.6-.9,3l-10.8-1.7c0-.1,0-.2,0-.3,0,1.2-.1,2-.6,2.5l11.6,1.7c.7.1,1.3-.3,1.9-1.1.6-.9.9-2,.8-3.3v-1.8c-.9-14.1-2.1-28.5-3.8-43.3-.7-4.9-2.3-8.4-4.8-10.6l-8.3-5.3Z"/>
    </g>
    <g id="Layer0_1_FILL" data-name="Layer0 1 FILL">
      <path class="cls-3" d="M50.2,180c1,2.7,1.4,6,1.4,9.7-.1,3.8-.6,7-1.8,9.6-1.1,2.7-2.5,4-3.9,4s-2.8-1.3-3.8-4-1.5-5.8-1.4-9.6c.1-3.9.6-7.1,1.8-9.7s2.5-4,4-4,2.8,1.3,3.7,4M51,187c-.1-2.9-.5-4.8-1.2-6-2.9-.4-4.8,2.3-5.4,8-.1,7.1,1,11.1,3.3,12.1,1.2-.5,2.2-2.6,3-6.3-2.2,0-3.4-1.7-3.7-5.2l1.3,2.6c-.5-3.6.3-6.1,2.4-7,.1.4.3,1,.3,1.8M51.2,189.5h-2.3c-.7,2.6-.1,4.1,1.9,4.5.3-1.7.4-3.2.4-4.5M42.9,188.4l-.3,2.1-.8-.3c0,2.1.1,3.8.3,5.2,0,.1.1.4.2.5,1,4.5,2.6,6.6,4.6,6-1.5-.7-2.7-2.5-3.5-5.6v-.4c-.5-2.2-.6-4.7-.5-7.5M42.1,184.3c.6-2.2,1.7-3.6,3-4.3-.7,1.7-1.1,3.2-1.2,4.7,1.9-4.3,3.7-5.8,5.8-4.4-1.4-2.7-2.8-3.6-4.2-2.9-1.5.8-2.6,3.1-3.3,6.9Z"/>
    </g>
    <g id="Layer0_2_FILL" data-name="Layer0 2 FILL">
      <path class="cls-3" d="M199.3,146.2c0,0-.3,0-.4,0-10.9-5.1-20.3-3.6-28.4,4.7-7.4,7.6-11.3,17.8-11.7,30.7v.7c0,0,0-1.1,0-1.1-.7-5.7,0-11.6,1.8-17.6,1.8-6,4.6-11.1,8.3-15.1,4-4.4,8.4-7,13.2-7.6,5.5-.7,11.1.9,16.8,4.9,0,0,.2.2.3.4,0-.1,0,0,.1,0M185.3,153.9h.5c5.9,0,10.9,2.6,15.3,7.9,4.2,5.3,6.4,11.7,6.6,19.1.2,7.4-1.7,13.7-5.7,18.9-4.1,5.1-9.1,7.7-15,7.6-6,0-11.1-2.6-15.3-7.8-1.6-2-2.9-4-3.9-6.2-1.8-3.9-2.8-8.1-3-12.8,0-4.3.5-8.2,1.8-11.8.9-2.6,2.3-5,4.1-7.2,3.1-4,6.7-6.4,10.9-7.3,1.2-.2,2.4-.3,3.6-.3M179.9,159c-.5,0-1,.2-1.4.7-.3.4-.5.9-.5,1.4s.2,1,.5,1.4.8.6,1.4.6.8-.2,1.2-.6c.3-.4.5-.9.5-1.4s-.2-1-.5-1.4c-.3-.5-.7-.7-1.1-.7M190.1,159.4c-.6,0-1.1.2-1.5.7-.3.4-.5.9-.5,1.6s.2,1.2.5,1.7c.4.4.8.6,1.4.6s1-.2,1.4-.6.5-.9.5-1.6-.2-1.1-.5-1.6c-.4-.5-.9-.7-1.4-.7M170.6,167.1c-.3.3-.4.6-.4,1s.1.9.4,1.2c.3.3.7.5,1.1.5s.7-.2,1.1-.5c.3-.3.4-.7.4-1.1s-.1-.7-.4-1.1c-.3-.3-.7-.5-1.1-.5-.4,0-.8.1-1.1.5M182.7,164.9c-3.8,0-7,1.6-9.6,4.8-2.6,3.2-3.9,7.2-3.7,11.8,0,4.7,1.6,8.6,4.3,11.9,2.8,3.2,6.1,4.9,9.9,4.9s7-1.6,9.6-4.8c2.6-3.2,3.9-7.2,3.7-11.8s-1.6-8.6-4.3-11.9c-2.8-3.3-6.1-4.9-9.9-4.9M196.8,166.9c-.4.5-.5.9-.4,1.4,0,.5.3,1,.7,1.4.5.3,1,.4,1.6.3.5,0,1-.4,1.4-.8s.5-.9.5-1.5c0-.5-.4-.9-.9-1.3s-1.1-.5-1.7-.5c-.5.2-.9.5-1.2.9M200.7,181.2c0,.5.2.9.6,1.3.5.4.9.6,1.5.6s1-.2,1.5-.6c.4-.3.5-.7.5-1.3s-.2-.9-.7-1.2c-.4-.4-.9-.7-1.5-.7s-1,.2-1.4.7c-.3.3-.5.7-.5,1.2M199.5,195.9c.6,0,1.1-.2,1.5-.5.4-.4.5-.9.5-1.4s-.2-1-.5-1.4c-.5-.5-1-.7-1.6-.7s-1.1.3-1.5.7c-.5.4-.7.8-.7,1.4.1.5.3,1,.7,1.4.5.3,1,.5,1.6.5M192.3,202.8c.5-.4.6-.9.5-1.4,0-.5-.2-.9-.5-1.3-.3-.3-.8-.5-1.3-.5s-.9.2-1.4.5c-.3.4-.5.8-.5,1.3s.2.9.5,1.4c.3.3.8.5,1.4.5s.9-.2,1.2-.5M173.6,194.8c0-.4-.2-.7-.5-1.1-.3-.3-.6-.4-1.1-.4s-.7.1-1,.4c-.3.3-.5.7-.5,1.1s.1.8.5,1.1c.3.3.6.5,1,.5s.8-.1,1.1-.5c.3-.3.5-.7.5-1.1M178.9,200c-.3.4-.5.8-.5,1.3,0,.5.3.9.6,1.4.4.3.8.5,1.2.5s1-.1,1.4-.5c.4-.4.5-.9.5-1.4s-.2-.9-.5-1.3c-.3-.3-.8-.5-1.4-.5-.5,0-1,.2-1.4.5M181.6,168.6c2.4,0,4.6,1.3,6.4,3.6,1.8,2.4,2.8,5.4,2.9,8.9,0,3.4-.7,6.3-2.4,8.6-1.8,2.5-3.9,3.7-6.4,3.6-.7,0-1.3,0-1.8-.3-3.2-1.8-5.1-5.1-5.7-10.1,2.1,4.3,4.9,6.8,8.4,7.2-2.9-1.5-4.9-3.9-5.9-7.3-.9-3.3-.7-6.6.6-9.9-1.5.6-3,2.2-4.5,4.7.4-2.1,1.1-3.9,2.2-5.5,1.6-2.5,3.6-3.6,6.1-3.6M189.5,181.9h-10c1.4,4.6,3.3,6.9,6,6.8,2.2-.3,3.4-2.6,4-6.8Z"/>
    </g>
    <g id="Layer0_3_FILL" data-name="Layer0 3 FILL">
      <path class="cls-3" d="M29.2,181.5c-.7-2.7-1.6-4-2.5-4s-2,1.3-2.8,4-1.2,5.9-1.2,9.7.3,7,1,9.6c.7,2.7,1.6,4,2.6,4s1.9-1.3,2.7-4,1.1-5.8,1.2-9.6c0-3.9-.3-7.1-1-9.7M29.7,188.5c0-.8-.2-1.4-.3-2.1-1.4,1.1-1.9,3.5-1.6,7.1l-1-2.6c.3,3.6,1.1,5.3,2.6,5.2-.5,3.8-1.2,5.9-2.1,6.5-1.6-.9-2.3-4.9-2.3-12,.4-5.8,1.7-8.5,3.7-8.1.5,1.1.8,3.1.9,5.9M25.7,181.5c-1,.6-1.7,2.1-2.1,4.3.4-3.8,1.2-6.2,2.3-6.9,1-.8,1.9.2,2.9,2.9-1.4-1.4-2.7,0-4,4.3.2-1.4.4-3,1-4.6M28.4,191h1.6c0,1.3,0,2.8-.3,4.5-1.4-.4-1.8-1.8-1.3-4.5M23.4,191.7l.6.2.3-2.1c0,2.9,0,5.4.2,7.6v.4c.6,3,1.5,4.9,2.5,5.5-1.4.5-2.5-1.4-3.1-5.9,0-.2,0-.4-.2-.6-.3-1.3-.3-3-.3-5.1Z"/>
    </g>
    <path class="cls-1" d="M108,222.4h-15v17.3h15.6c1.5,0,2.9-.7,4.3-2.3s1.9-3.6,1.9-6.4-.7-4.9-2.3-6.4c-1.6-1.5-3.1-2.3-4.6-2.3Z"/>
    <path class="cls-1" d="M177.3,240.7c-1.9-1.7-4.4-2.5-7.5-2.5s-5.5.8-7.5,2.5-3.1,3.9-3.5,6.9h22.1c-.4-2.9-1.6-5.2-3.6-6.9Z"/>
    <path class="cls-1" d="M42.8,238.5c-1.7,0-3.3.6-4.6,1.9-1.4,1.3-2.1,2.9-2.2,4.5,0,1.7.5,3.4,1.7,5.1l10-9.5c-1.6-1.3-3.2-1.9-5-2Z"/>
    <path class="cls-1" d="M244,243.5c-2.3-1.6-4.7-2.4-7.3-2.4s-3.3.4-4.7,1.1-2.8,1.7-3.9,2.9c-1.1,1.2-1.9,2.6-2.5,4.2-.6,1.6-.9,3.4-.9,5.2,0,3.7,1.2,6.7,3.7,9,2.4,2.3,5.6,3.4,9.4,3.4s4.6-.5,6.4-1.5c1.8-1,3.5-2.6,5.2-4.6v-10.7c-1.3-2.7-3.1-4.9-5.4-6.5Z"/>
    <path class="cls-1" d="M304.5,264.3c-1.3-.7-3.9-1.6-7.7-2.6-4.7-1.2-8.7-2.4-11.9-3.6s-5.7-2.4-7.8-3.8c-1.7-1.2-3-2.5-3.9-3.9v20.3l5.5-8.6c4.2,2.5,8.1,4.4,12,5.8,3.9,1.4,7.4,2,10.6,2s5.1-1,5.1-2.9c0-1.1-.6-2-1.9-2.7Z"/>
    <g>
      <path class="cls-3" d="M136.2,22.7h0l19.4,7h0c-5.7-2.3-12.2-4.7-19.4-7Z"/>
      <path class="cls-3" d="M142.1,210.2c1.5,0,3.1,0,4.7,0,4.7,0,9.5,0,14.4,0-.7-.9-1.3-1.9-1.9-3-.9-1.8-1.7-3.7-2.2-5.7l-10.2.4c-.6,2.2-1.4,4.1-2.5,5.8-.6,1-1.4,1.8-2.2,2.6Z"/>
      <path class="cls-3" d="M85.6,204.7h-7.7c-.1.2-.2.6-.3.9s-.2.7-.3,1c-.4,1.3-.9,2.4-1.4,3.3-.1.2-.2.4-.4.7-.1.2-.2.4-.4.6,1.2,0,2.3,0,3.5,0,3.4,0,7-.1,10.6-.2-.6-.6-1.1-1.3-1.6-2.1-.8-1.2-1.4-2.6-1.9-4.1Z"/>
      <path class="cls-3" d="M351.2,161.3c-.2-1.1-.5-2.2-.8-3.2-.3-1.1-.7-2.1-1.2-3.1-.3-.7-.8-1.4-1.2-2-.1-.2-.3-.7-.7-1.5-.7-1.7-1.5-4-2.4-7-1.1-6.2-2.9-11.2-5.6-15.2l-3.7-33.2c0-.2,0-.5,0-.7-.7-7.2-3.5-17.1-13.2-23.5-.1,0-.2-.1-.3-.2l-4.5-2.7c-.8-1.1-1.6-2-2.6-3h0c-.1-.2-.4-.4-.7-.6,0,0,0,0,0,0-.7-.6-1.5-1.2-2.3-1.7-2.6-1.7-5.8-2.9-9.5-3.6-.4,0-.8-.2-1.2-.2-.8-.1-1.6-.2-2.5-.3-.7,0-1.4-.1-2.1-.2,0,0-.2,0-.2,0-.8-.2-1.7-.3-2.5-.4-9.9-1.7-21-2.5-32.8-2.5h-.4c-1.7,0-3.4,0-5.1,0l-9-7.4c-.3-1.2-.7-2.3-1.1-3.3-.6-1.2-1.3-2.4-2.2-3.3,0,0,0-.1,0-.2h0c0-.4-.2-.6-.3-.9,0-.2-.1-.4-.2-.6-.1-.3-.2-.5-.3-.8,0-.2-.2-.4-.2-.6-.1-.3-.2-.5-.3-.8h0c0-.2-.2-.4-.2-.6-.1-.2-.2-.4-.3-.6-.6-2.2-2.1-4.2-4.1-5.3-.5-.5-1.1-.9-1.7-1.3,0,0,0,0,0,0-.4-.3-.9-.6-1.3-.8,0,0-.2-.1-.3-.1-.4-.2-.8-.4-1.2-.6-.2,0-.3-.1-.5-.2-.3-.1-.7-.2-1.1-.4-.3,0-.6-.2-.7-.2-.2,0-.5-.1-.9-.2-.5,0-1-.2-1.5-.2-.7,0-1.4-.1-2-.1s-1.7,0-2.5.2c-.6,0-1.1.2-1.6.4-2.5.7-4.6,2-6.3,3.9-14.1-5.2-28.3-8.9-42.4-11-.4,0-.9,0-1.3,0s-.6,0-.9,0c-11.5-5.3-24.1-10.3-37.5-14.8-.8-1.3-1.9-2.3-3.3-3.1-4.2-2.3-8.2-3.5-12.1-3.5h0c-3.9,0-7.4,1.1-10.6,3.3-2.2-.2-4.3-.4-6.3-.5-.8,0-1.7,0-2.5,0h-.7c-9.1,0-17.3,1.5-24.5,4.4-.9.4-1.8.9-2.6,1.6-4.1,2.6-7.1,6.1-9,10.6-.2.5-.5,1.1-.7,1.6-1.3,3.6-2,7.8-2.1,12.9l-1.2,56.1-1.3,57.7-5.4.5c-.8,0-1.6.2-2.4.4-5.5,1.2-8.7,4.2-10.4,6.6-.2.2-.3.5-.5.7-.9.7-1.8,1.4-2.7,2.3h-7.8c-1.2,0-2.5.2-3.6.6-.6.2-1.2.4-1.7.7-.7.3-1.3.7-2,1.1-2.1,1.4-4,3.4-5.5,6-.6,1.1-1.2,2.2-1.7,3.5-.2.6-.5,1.2-.7,1.9-.1.3-.2.6-.3.9-.2.6-.4,1.3-.6,2,0,.3-.2.7-.3,1-.3,1-.5,2.1-.7,3.2-.5,2.5-1,5.3-1.3,8.4,0,.4,0,.8,0,1.2,0,3.2.2,6.2.4,8.8,0,.8.1,1.5.2,2.3,0,.4,0,.7.1,1.1.2,1.7.5,3.3.8,4.7-1.6.3-2.8.5-3.8.9-5.1,1.7-6.9,5.8-6.9,9s1.7,7.1,6.4,8.9c1,.4,2.1.7,3.6.9,2.1.4,5,.7,8.9,1.1,2,.2,4.2.3,6.6.5,1.8.1,3.8.2,5.9.3,7,.4,15.6.7,25.7,1,7.6.2,15.8.5,24.2.7v-9c-8.3-.2-16.3-.4-23.9-.7-10.1-.3-18.6-.7-25.5-1-2.1-.1-4-.2-5.8-.3-2.4-.1-4.5-.3-6.4-.5-7.1-.6-10.6-1.3-10.6-2s1.1-.8,3.2-1.1c.1,0,.3,0,.5,0,.5,0,1-.1,1.6-.2s1.2-.1,1.9-.2c.5,0,.9,0,1.4-.1.8,0,1.5-.1,2.4-.2.9,0,1.8-.1,2.7-.2,1,0,2-.1,3-.2-.9-.2-1.8-.8-2.6-1.6-.3-.3-.5-.6-.8-.9-.4-.5-.7-1.1-1.1-1.8-.6-1.1-1.1-2.5-1.6-4-.4-1.5-.7-3.2-.9-5.1,0-.3,0-.6-.1-1,0-.6-.1-1.3-.2-2-.2-2.4-.3-5.1-.4-8.1.3-2.8.7-5.4,1.2-7.6.2-1,.4-1.9.6-2.8,0-.3.1-.6.2-.9.2-.6.3-1.1.5-1.6,0-.3.2-.5.2-.8.2-.5.4-.9.5-1.4.4-.9.8-1.7,1.2-2.4.8-1.4,1.7-2.4,2.7-3.1.2-.2.5-.3.8-.4.3-.1.5-.2.8-.3.2-.1.5-.1.8-.1h12c1.3-1.9,2.7-3.4,4.3-4.4.3-.2.7-.4,1-.5.2-.7.6-1.4,1-1.9,1.2-1.7,3.1-2.7,5.7-3.1h0c0,0,.1,0,.1,0l13.7-1.2,1.4-65.7,1.2-56.1c0-4.1.6-7.4,1.6-10,.1-.4.3-.7.4-1.1,1.3-3.1,3.4-5.4,6.4-7,.2-.1.3-.2.4-.4,6.1-2.5,13.2-3.8,21.1-3.8h.6c.7,0,1.5,0,2.2,0,3,.1,6.2.4,9.5.9.2-.3.5-.5.8-.8,0,0,0,0,0,0,.4-.4.8-.8,1.3-1.1,1.7-1.2,3.6-1.8,5.6-1.8s4.9.8,7.8,2.3c0,.6,0,1.4.1,2.2,16,5.1,30.6,10.8,43.8,17.1.2,0,.5-.1.7-.2.4-.1.8-.2,1.3-.2,15.1,2.2,30.3,6.3,45.4,12.4,1,.4,2,.8,3,1.2,0-.3,0-.6,0-.9,0-.6.2-1.1.3-1.6.2-.8.5-1.4.8-2,.7-1.1,1.6-1.8,2.8-2.2.2,0,.4,0,.6-.1.3,0,.7,0,1.1,0s.7,0,1.1,0c.3,0,.5,0,.8.1.1,0,.3,0,.4,0,.1,0,.2,0,.3,0,.2,0,.4.1.5.2,0,0,.1,0,.1,0,.2,0,.4.2.6.3,0,0,0,0,0,0,.2.1.4.2.6.4h0c.6.4,1.2.9,1.7,1.5h.5c0,0,0,.8,0,.8,0,0,.1.2.1.2.1.2.2.3.3.5,0,0,.1.2.2.3,0,.2.2.3.2.5,0,.1.1.2.2.4,0,.2.1.3.2.5,0,.1.1.3.2.4,0,.2.1.3.2.5,0,.1.1.3.1.4,0,.2.1.4.2.6,0,.1,0,.3.1.4,0,.2.1.5.2.7s0,.2,0,.3c0,.4.2.7.3,1.1.9.4,1.6,1.1,2,2.1.5,1,.8,2.4.9,4v.2l14.4,11.7c2.8,0,5.5-.1,8.2-.1h.3c11.5,0,22,.8,31.5,2.4.7,0,1.5.2,2.2.4.3,0,.6,0,.9.2.7,0,1.4,0,2.1.2.7,0,1.3.2,2,.3.3,0,.6.1.9.2,2.6.5,4.8,1.3,6.5,2.4.5.3.9.6,1.3,1,.1.1.3.2.4.4,1,.9,1.7,1.9,2.3,3l6.3,3.8c5.4,3.6,8.5,9.2,9.2,16.8v.4l4,35.8v.4c2.7,3.1,4.4,7.5,5.4,13.3,0,.1,0,.3,0,.4,1.1,3.5,2,6.3,2.8,8.3.4,1,.8,1.8,1.1,2.5s.6,1.1.9,1.4c.3.7.6,1.4.8,2.1.2.7.4,1.5.5,2.2.3,1.5.4,3.1.3,4.7l-.2,17c-.1.8-.2,1.5-.5,2.2-.1.3-.2.7-.3,1-.2.6-.6,1.2-.9,1.8-1.2,1.9-3.1,3.1-5.7,3.7-1.1.3-2.3.4-3.6.4-.2,0-.4,0-.5,0-.3,0-.5,0-.8,0l-23.5.7c-.1.4-.2.9-.4,1.3-1.9,6.6-6,12-12.3,16.2,9.5.3,17.5.7,24,1,2,.1,3.8.2,5.5.3,1.7.1,3.2.2,4.7.3,2.9.2,5.2.5,7,.7,1.8.2,3,.5,3.7.8.2,0,.4.2.5.3.1,0,.2.2.2.3,0,.4-1.3.8-3.8,1.2-6.5,1-21.4,1.9-44.6,2.6-20.9.7-44.6,1.2-71.1,1.5-14.4.1-29.7.1-45.7.1h0c-19.5,0-37.8-.1-54.9-.3v9c17,.2,35.5.3,54.9.3s31.4,0,45.8-.1h0c26.4-.3,50.4-.8,71.3-1.5,23.8-.8,38.7-1.6,45.7-2.7,1.8-.3,3.1-.6,4.2-.9,5.3-1.7,7.2-5.8,7.2-9.2s-1.4-5.7-3.9-7.5c-.8-.6-1.7-1.1-2.8-1.5-1.4-.5-3.1-.9-5.6-1.2-2-.3-4.4-.5-7.4-.8-1.5-.1-3.1-.2-4.8-.4-1.7-.1-3.6-.2-5.6-.3-1.8-.1-3.7-.2-5.7-.3,0-.2.2-.4.2-.5l17.1-.5c.3,0,.5,0,.8,0s.5,0,.8,0c2,0,3.8-.3,5.5-.7,4.7-1.1,8.5-3.7,11-7.4.7-1.1,1.3-2.2,1.8-3.4.2-.6.4-1.2.6-1.8.3-1.1.6-2.4.8-3.6,0-.3,0-.7,0-1l.2-16.9c0-2.2-.1-4.4-.5-6.5Z"/>
      <path class="cls-3" d="M178.7,65.5c1,.8,2.1,1.2,3.4,1.3l27.3-1.1c-9.8-4-21-7.1-33.4-9.3l1.2,7.2c.4.7,1,1.3,1.6,1.8Z"/>
      <path class="cls-3" d="M220.5,202.4c-.2.4-.3.8-.5,1.1-1.1,2.5-2.3,4.8-3.7,6.9h3.7c9.7,0,19.1.2,28,.3,3,0,5.9.1,8.8.2-1.9-2-3.6-4.4-5.3-7.2-.5-.9-1.1-1.9-1.6-2.9l-29.1.4c-.2.4-.3.8-.5,1.2Z"/>
      <polygon class="cls-3" points="238.8 58.2 241 65.4 248.4 65.4 238.8 58.2"/>
      <path class="cls-3" d="M236.5,53.8c-.2-1.3-.5-2.3-.9-3.1,0,1-.2,1.9-.3,2.7-.2,1.4-.5,2.6-.9,3.5l1.4,2.8.7,1.3v-7.2h0Z"/>
    </g>
    <path class="cls-3" d="M327.5,259.3c-.8-1.8-2.3-3.5-4.3-5s-4.6-2.9-7.9-4.1c-3.3-1.3-7.4-2.4-12.2-3.6-4-.9-6.6-1.7-8-2.4-1.4-.7-2-1.6-2-2.8s.5-1.8,1.4-2.3c1-.5,2.1-.7,3.5-.7,2.5,0,5.1.5,7.9,1.5,2.8,1.1,6.3,2.7,10.4,5.2l9.1-13c-4.5-3.5-9-5.8-13.4-7-4.4-1.2-9.1-1.7-14-1.7s-7.6.5-11,1.5c-3.3,1-6.2,2.5-8.6,4.4-2.4,1.9-4.3,4.2-5.6,6.7-.2.3-.3.5-.4.8v-12.2h-20.9v8.9c-2.1-3.3-5-5.7-8.6-7.5-3.6-1.7-7.9-2.6-12.7-2.6s-8.8.8-12.5,2.3c-3.8,1.6-7.1,3.7-9.9,6.4-2.3,2.3-4.2,4.9-5.6,8-1.5-2.7-3.4-5.2-5.7-7.3-3.1-2.9-6.9-5.1-11.5-6.9-4.6-1.7-9.8-2.6-15.8-2.6s-11.3.8-15.8,2.6c-4.5,1.7-8.3,4-11.4,6.9-1.3,1.3-2.5,2.6-3.6,4,.3-1.7.5-3.5.5-5.3,0-3.4-.7-6.8-2.3-10.2-1.5-3.4-3.6-6.4-6.3-9-2.7-2.6-5.8-4.7-9.6-6.4-3.7-1.6-7.8-2.4-12.2-2.4h-41.4v11.9h0l-.4,27.3-11.2,5.7c.6,1.3.6,2.7.1,4.3s-1.4,2.9-2.6,4c-1.3,1.2-2.8,2-4.5,2.2s-3.5-.3-5.2-1.9l21.2-20.2c-.4-.5-.8-1.2-1.4-1.8s-1-1.3-1.6-1.9c-2-2.1-4.3-3.9-6.9-5.1s-5.3-2-8.1-2.2-5.7.3-8.6,1.4-5.7,2.9-8.4,5.4c-2.7,2.6-4.7,5.3-5.9,8.1-1.2,2.9-1.8,5.7-1.8,8.5s.6,5.6,1.8,8.3c1.2,2.7,2.9,5.2,5,7.4,2,2.1,4.2,3.7,6.8,5,2.6,1.2,5.2,1.8,8,2,2.8.2,5.6-.4,8.5-1.5,2.8-1.1,5.6-3,8.3-5.4,3.7-3.5,6.1-7.3,7.2-11.3,0-.3.1-.5.2-.8.4-1.2.7-2.4.9-3.6,4.1-19.9,2.1.1,2.1.1,0,0,4.6-4.6,6-13.3,1.3-8.6,1.3,14.6-5.3,24.6s2.7,1.3,5.3-6.6c2.5-7.4,1.5,14.7-9.5,30.1h0v.2h24.7v-24.8h9.3l15.9,24.8h27.9l-19-29.8c3-1.9,5.5-4.2,7.5-6.9-.6,2.4-.8,4.9-.8,7.5,0,4,.8,7.9,2.4,11.5,1.6,3.6,3.9,6.9,7.1,9.7,3.1,2.8,6.9,5,11.5,6.7,4.6,1.6,9.8,2.5,15.6,2.5s15.1-1.5,20.8-4.6c5.6-3.1,9.8-7,12.5-11.8l-20.4-5.3c-.7,1.9-2.3,3.4-4.6,4.4-2.3,1-4.8,1.6-7.4,1.6s-5.4-.7-7.8-2.1c-2.4-1.4-3.7-3.7-3.9-6.9h41.4c.4,1.8.8,3.5,1.5,5.1,1.4,3.6,3.4,6.8,5.9,9.5,2.5,2.7,5.6,4.9,9.2,6.4,3.6,1.6,7.5,2.3,11.9,2.3s8.3-.7,11.9-2.3c3.6-1.5,6.4-3.9,8.3-7.1v3.9c0,2.6-.4,5-1.3,6.9-.9,1.9-2.1,3.4-3.6,4.6-1.5,1.2-3.3,2-5.3,2.6s-4.1.8-6.3.8c-3.9,0-7.5-.7-11-2.1-3.4-1.4-6.4-3.2-8.8-5.2l-12.7,11.9c4.1,3.7,8.7,6.6,14,8.5s11.4,3,18.5,3,11.6-.7,16.6-2.2c4.9-1.5,9.3-3.5,12.8-6.2s6.3-5.9,8.2-9.7c2-3.8,2.9-8.1,2.9-12.8v-1.3c3.3,2.3,7.1,4.1,11.4,5.4,5.6,1.7,11.3,2.6,17.1,2.6s8.2-.5,11.6-1.4c3.4-.9,6.3-2.2,8.8-4,2.4-1.8,4.3-3.9,5.5-6.3,1.3-2.4,1.9-5.2,1.9-8.3.2-2.3-.2-4.5-1-6.3ZM35.1,245.6c0-1.7.8-3.2,2.2-4.5,1.4-1.3,3-1.9,4.6-1.9s3.4.7,5,2l-10,9.5c-1.3-1.7-1.8-3.4-1.8-5.1ZM111.9,238c-1.3,1.5-2.7,2.3-4.3,2.3h-15.6v-17.3h15c1.5,0,3.1.7,4.6,2.2,1.5,1.5,2.3,3.6,2.3,6.4,0,2.8-.6,5-1.9,6.4ZM157.8,248.2c.4-2.9,1.6-5.2,3.5-6.9s4.4-2.5,7.5-2.5,5.5.8,7.5,2.5,3.1,3.9,3.5,6.9h-22ZM248.3,261.3c-1.6,2-3.3,3.6-5.2,4.6s-3.9,1.5-6.4,1.5c-3.8,0-7-1.2-9.4-3.4-2.5-2.3-3.7-5.3-3.7-9s.3-3.5.9-5.2c.6-1.6,1.4-3.1,2.5-4.2s2.4-2.1,3.9-2.9,3.1-1.1,4.7-1.1c2.5,0,4.9.8,7.3,2.4s4.1,3.7,5.3,6.5v10.7h0ZM300.4,270.5c-3.2,0-6.7-.7-10.6-2s-7.9-3.3-12-5.8l-5.5,8.6v-20.3c.8,1.4,2.2,2.7,3.9,3.9,2,1.4,4.6,2.6,7.8,3.8,3.2,1.2,7.1,2.4,11.9,3.6,3.8,1,6.4,1.8,7.7,2.6s2,1.7,2,2.7c0,1.9-1.7,2.9-5.1,2.9Z"/>
  </g>
  <path class="cls-3" d="M337.1,233.5c0,2.7-2.1,4.7-4.8,4.7s-4.8-2.1-4.8-4.7,2.1-4.7,4.8-4.7,4.8,2.1,4.8,4.7ZM328.7,233.5c0,2.1,1.5,3.7,3.7,3.7s3.6-1.7,3.6-3.7-1.5-3.8-3.6-3.8-3.6,1.7-3.6,3.7ZM331.6,236h-1.1v-4.7c.4,0,1-.1,1.8-.1s1.3.1,1.6.3c.3.2.5.6.5,1s-.4.9-1,1.1h0c.5.2.7.6.9,1.2.1.7.2,1,.3,1.2h-1.2c-.1-.2-.2-.6-.4-1.1,0-.5-.4-.7-1-.7h-.5v1.9ZM331.6,233.3h.5c.6,0,1.1-.2,1.1-.7s-.3-.7-1-.7-.5,0-.6,0v1.3Z"/>
</svg>