<?xml version="1.0" encoding="utf-8"?>
<!-- Generator: Adobe Illustrator 27.0.0, SVG Export Plug-In . SVG Version: 6.00 Build 0)  -->
<svg version="1.0" id="Layer_1" xmlns="http://www.w3.org/2000/svg" xmlns:xlink="http://www.w3.org/1999/xlink" x="0px" y="0px"
	 viewBox="0 0 665 417" style="enable-background:new 0 0 665 417;" xml:space="preserve">
<style type="text/css">
	.st0{fill:#FFFFFF;}
</style>
<g>
	<path class="st0" d="M630.42,296.9l-7.87-56.55L601,147.43l-37.56-29.77l-46.72-1.68l-68.07,2.07l-3.68-20.12l-1.84,6.12
		l-5.57-10.03l1.11-8.91l1.49-1.98l-2.81-2.73l-1.59-16.93l-15-6.09L412,69.79l-68.9-16.72l-39.91-3.91L233.91,24.2l-2.07-16.85
		l-17.05,1.68l-17.4,9.77l-11.53-4.74l-50.32,10.06l-8.81,56.61l-3.77,166.06l7.67,35.16l-35.9,3.95l-11.16,17.15l-45.23,9.15
		l-7.85,51.76l12.84,8.48l7.38,20.28l64.61-21.16l124.76-6.68l46.15-18.33l25.13,39.49l53.47,1.11l41.21-35.64l223.98,2.85
		l9.99-27.06L630.42,296.9z M329.15,123l-8.55-36.77h27.85l62.38,28.96L329.15,123z"/>
	<g id="zatq4L.tif_00000002359135424041392060000003746895128479719042_">
		<g>
			<path d="M12.86,395.71c9.6-1.09,19.21-2.17,29.27-3.31c-8.29-7.68-10.44-17.7-11.66-28.41c-1.68-14.78-0.66-29.14,4.02-43.15
				c1-2.98,2.28-5.91,3.83-8.61c2.7-4.7,6.41-7.7,11.98-7.2c2.49,0.22,5.09-0.39,7.5,0.11c11.36,2.32,18.18-4.84,24.45-13.16
				c3.25-4.32,7.74-5.52,12.46-6.06c7.92-0.9,15.86-1.57,24.2-2.37c0.14-1.77,0.34-3.38,0.37-4.99
				c1.26-57.41,2.5-114.81,3.76-172.22c0.4-17.96,0.66-35.93,1.4-53.87c0.26-6.3,1.11-12.74,2.79-18.77
				c2.99-10.71,10.58-16.65,20.35-19.63c17.46-5.33,35.2-5.73,53.11-3.57c1.78,0.21,4.12-0.32,5.48-1.48
				c9.07-7.75,17.96-5.11,25.66-1.68c0.56,0.25,1.46,0.72,1.47,1.11c0.18,5.82,4.82,5.16,8.06,6.45
				c24.05,9.58,48.03,19.33,72.21,28.51c4.97,1.89,10.7,1.37,16.02,2.32c27.41,4.89,54.1,12.65,80.03,23.39
				c0.71,0.29,1.48,0.41,2.37,0.65c0.25-0.75,0.51-1.35,0.64-1.98c0.97-5.04,2.76-9.52,8.12-10.43c5.97-1.01,11.18,0.76,15,6.09
				c0.67,0.93,1.28,1.93,1.73,3c3.05,7.18,5.98,14.41,9.11,21.55c0.56,1.27,1.68,2.36,2.75,3.25c7.41,6.18,14.83,12.37,22.38,18.35
				c1.37,1.08,3.42,1.72,5.13,1.66c29.07-1.03,57.9,1.57,86.58,6.37c8.22,1.38,15.56,4.36,20.97,11.96
				c2.03,2.86,5.79,4.44,8.94,6.23c12.54,7.11,18.97,18.31,20.49,33.31c2.28,22.52,4.9,45.01,7.43,67.5
				c0.14,1.28,0.55,2.71,1.28,3.69c5.15,6.91,6.82,15.28,9.26,23.44c2.55,8.55,6.55,16.6,9.37,25.08c1.6,4.82,2.79,10.03,2.94,15.11
				c0.32,10.9-0.07,21.82-0.32,32.73c-0.22,9.41-5.13,16.25-13.78,17.66c-7.38,1.21-14.96,1.14-22.46,1.43
				c-9.24,0.37-18.48,0.45-27.71,0.86c-1.42,0.06-3.44,0.87-4.07,2.03c-3.07,5.61-5.18,11.91-8.77,17.08
				c-3.56,5.13-8.46,9.19-13.21,14.17c28.21,1.59,56.35,1.49,84.12,5.93c0.01,0.78,0.03,1.55,0.04,2.33
				c-5.95,0.84-11.88,2.15-17.85,2.43c-35.37,1.64-70.73,3.46-106.11,4.46c-121.55,3.42-243.11,3.08-364.66,0.39
				c-38.83-0.86-77.64-2.97-116.46-4.65c-5.3-0.23-10.58-1.22-15.85-1.97c-1.43-0.2-2.8-0.84-4.19-1.28
				C12.84,396.96,12.85,396.34,12.86,395.71z M40.81,331.64c-4.27,13.96-4.2,27.9,0.57,41.68c0.48,1.4,2.51,3.22,3.62,3.07
				c1.43-0.19,2.66-2.16,4.34-3.7c-5.13-1.67-6.62-6.39-6.49-20.04c0.07-6.71-0.24-13.82,6.9-19.6c0.45,3.81,1.31,6.3,0.87,8.51
				c-0.78,3.97-2.46,7.72-3.54,11.63c-1.07,3.89,0.59,6.17,5.1,7.65c0-5.74,0.42-10.94-0.11-16.02c-0.58-5.6-1.88-11.13-3.22-16.6
				c-0.33-1.33-2.13-3.22-3.13-3.14c-1.36,0.11-2.8,1.68-3.82,2.98c-0.74,0.94-0.84,2.46-1.23,3.72L40.81,331.64z M302.7,215.6
				l-0.17,0.17c6.38-2.46,7.8-4.64,7.61-11.54c-0.14-5.2-0.22-10.41-0.36-15.61c-0.18-6.83,0.07-13.85-6.66-17.48
				c7.2-5.66,9.99,1.37,14.35,5.08c-0.27-2.58-0.75-5-2.08-6.63c-6.46-7.98-13.16-15.74-19.76-23.59
				c-5.99-7.12-11.97-14.24-17.95-21.37c8.63,1.1,16.74,2.85,24.76,4.97c2.86,0.76,7.21-0.4,7.52,4.88
				c0.2,3.47,0.72,7.15-0.13,10.37c-0.68,2.58-3.2,4.6-4.77,6.7c3.65,4,7.63,8.37,12.1,13.27c-0.22-4.46-1.24-8.5-0.34-11.96
				c0.81-3.13,3.22-6.7,5.84-8.13c2.86-1.56,6.78-0.89,10.97-1.26c0,7.25,0,13.36,0,20.04c36.68-7.09,72.87-6.81,109.26-2.99
				c0-14.32,0-27.99,0-41.91c-1.56-0.1-2.79-0.3-4.02-0.25c-27.39,1.07-54.78,2.14-82.17,3.29c-8.45,0.36-16.88,1.36-25.32,1.35
				c-8.08-0.02-11.42-3.85-12.81-12.34c-2.39-14.54-2.36-29.53-7.13-43.8c13.8,10.34,13.81,10.15,25.38,10.78
				c30.84,1.68,60.39,8.99,88.13,23.84c5.38,2.88,10.64,6.02,15.96,9.04c-0.91-3.61-2.62-6.51-4.03-9.58
				c-1.3-2.83-2.74-3.88-5.87-2.73c-4.44,1.64-8.53,0.19-11.17-4c-1.99-3.15-3.67-6.65-4.81-10.24c-1.05-3.3-2.6-5.22-5.7-6.5
				c-28.01-11.58-56.97-19.35-86.5-24.68c-3.21-0.58-7.39,0.41-10.1,2.32c-4.47,3.16-9.49,3.9-14.18,5.9
				c-7.07,3.01-11.85-0.55-17.57-4.56c7.83-2.02,15.1-3.89,22.36-5.77c-0.05-0.51-0.1-1.01-0.15-1.52
				c-22.34-10.25-45.45-18.04-69.29-24.96c-1.34,55.26-2.66,109.74-3.99,164.77c3.99-0.95,7.3-1.74,11.19-2.66c0,2.16,0,3.78,0,5.41
				c0,13.43-0.04,26.86,0.01,40.29c0.04,11.46,3.87,14.73,14.42,12.5c9.37-1.98,18.78-3.76,28.07-6.08c2.48-0.62,4.61-2.87,6.9-4.37
				c-0.24-0.46-0.48-0.93-0.72-1.39c-1.06,0.16-2.13,0.25-3.17,0.48c-10.89,2.36-21.77,4.77-32.67,7.12
				c-5.65,1.22-9.04-1.43-9.75-7.6c-0.15-1.33-0.16-2.68-0.13-4.02c0.65-22.65,1.24-45.31,2.08-67.95c0.11-2.97,1.55-5.89,2.37-8.83
				c0.27,0.13,0.54,0.25,0.81,0.38c0,10.47,0,20.94,0,31.81c11.25-2.83,22.17-5.57,32.03-8.05c-1.57,4.36-4.52,8.98-4.67,13.71
				c-0.34,10.69,0.48,21.45,1.39,32.13c0.17,1.96,2.75,4.8,4.65,5.28C289.78,228.92,299.29,223.08,302.7,215.6z M627.4,283.69
				c-6.83-7.85-9.01-16.96-10.21-26.62c-0.39-3.14-2.42-6.04-3.62-9.08c-0.98-2.48-2.43-4.94-2.69-7.52
				c-2.24-22.51-4.01-45.07-6.44-67.56c-1.67-15.47-10.36-25.38-23.57-31.21c-1.7-0.75-3.52-2.33-4.35-4.04
				c-3.5-7.28-9.18-10.95-16.47-11.73c-21.64-2.34-43.3-4.5-64.96-6.61c-3.49-0.34-7.03-0.05-11.52-0.05
				c7.65,5.77,14.64,10.97,21.54,16.32c1.74,1.35,3.66,2.91,4.56,4.87c0.82,1.81,0.38,4.28,0.49,6.46
				c-2.03-0.75-4.18-1.25-6.04-2.33c-0.98-0.56-1.36-2.21-2.18-3.21c-1.6-1.98-3.13-4.13-5.03-5.73c-4.31-3.62-9.3-6.43-13.16-10.5
				c-8.72-9.21-19.24-6.54-29.83-6.69c1.47,6.75,2.47,13.04,4.26,19.07c1.7,5.72,4.22,11.15,6.53,17.13
				c-5.05,0.62-6.75-1.99-7.6-5.77c-2.03-8.97-4-17.95-6.16-26.88c-0.35-1.44-1.52-2.65-2.31-3.97c-0.87,14.33-0.95,27.9-0.84,41.46
				c0.11,13.59,0.41,27.17,0.62,40.28c-14.48-1.06-29.91-2.89-45.36-3.14c-15.76-0.25-32.01-1.31-47.22,2.15
				c-37.38,8.5-62.99,33.08-73.73,72.78c-4.67,17.26-6.18,35.53-8.61,53.42c-0.61,4.46-1.88,5.88-5.9,6.06
				c-10.95,0.49-21.9,1.2-32.82,2.19c-3.84,0.35-5.41-0.85-6.54-4.86c-3.34-11.89-4.54-24.85-13.65-34.13
				c-0.17-0.17-0.09-0.62-0.16-1.14c1.36-0.31,2.72-0.7,4.1-0.91c15.96-2.48,31.93-4.88,47.87-7.48c1.54-0.25,3.7-1.44,4.17-2.77
				c1.25-3.47,1.72-7.25,2.59-11.28c-1.75,0.14-3.14,0.17-4.51,0.37c-22.19,3.21-44.3,7.28-66.58,9.31
				c-10.75,0.98-15.12,6.71-17.73,16.25c-0.18,0.64-0.34,1.29-0.53,1.93c-4.13,14.03-3.79,28.49-3.57,42.93
				c0.06,3.97,0.33,7.94,0.53,12.4c35.35-2.45,70.12-4.86,105.44-7.31c0-3.52-0.02-6.51,0-9.51c0.15-17.35,1.85-34.51,5.76-51.37
				c4.06-17.5,10.14-33.85,23.13-46.27c13.85-13.24,30.34-15.3,46.38-5.32c11.07,6.89,18.25,17.73,24.33,29.38
				c1.76,3.37,3.5,4.18,6.98,3.81c13.09-1.38,26.2-2.62,39.33-3.36c47.93-2.73,95.45,2.11,142.76,9.72
				C592.19,276.45,609.35,280.21,627.4,283.69z M392.44,275.75c0.3,1.6,0.46,2.41,0.6,3.22c2.43,13.82,5.35,27.57,7.13,41.48
				c1.34,10.46,6.28,18.65,15.96,20.97c6.16,1.47,12.66,1.74,19.01,1.81c42.26,0.46,84.53,0.44,126.79,1.16
				c17.83,0.3,35.64,2.13,53.46,3.04c11.18,0.57,16.91-5.53,16.99-17.52c0.03-5.03,0.32-10.08,0.01-15.09
				c-0.37-6-1.08-11.99-1.98-17.92c-0.52-3.39-2.56-5.33-6.02-6.02c-19.68-3.95-39.25-8.63-59-12.09
				c-18.52-3.24-37.17-5.93-55.86-7.68c-32.86-3.08-65.71-1.45-98.49,2.1C405,273.87,398.99,274.85,392.44,275.75z M156.06,219.21
				c0.34-0.33,0.68-0.66,1.02-1c-0.37-2.62-1.15-5.25-1.06-7.85c0.78-21.98,1.64-43.96,2.64-65.92c0.3-6.59,3.25-12.32,8.4-15.57
				c6.57-4.15,13.78-7.17,20.78-10.52c3.46-1.65,5.46,0.28,6.11,3.82c0.38,2.11,0.27,4.35,0.21,6.53c-0.52,19.3-1.1,38.6-1.62,57.9
				c-0.1,3.8-0.01,7.61-0.01,11.91c2.04-0.64,3.62-1.14,4.97-1.56c0.19-0.8,0.34-1.12,0.34-1.44c1.04-57.41,2.06-114.83,3.16-172.24
				c0.06-2.98-0.85-4.08-3.61-4.46c-14.85-2.07-29.38,0.11-43.8,3.6c-5.7,1.38-10.22,5.25-12.02,11.04
				c-2.45,7.87-5.09,16.1-5.36,24.26c-1.66,50.17-2.67,100.37-3.89,150.55c-0.04,1.65-0.01,3.3-0.01,5.45
				c6.65-1.59,12.84-3.07,18.4-4.41C152.69,212.98,154.38,216.09,156.06,219.21z M224.45,135.36c0.13,0,0.26,0,0.39,0
				c0-8.56-0.11-17.11,0.02-25.67c0.45-30.36,0.97-60.73,1.48-91.09c0.04-2.39,0.31-4.63-2.63-5.54
				c-7.03-2.17-15.63,3.56-15.71,11.53c-0.82,75.16-2.14,150.31-3.29,225.47c-0.24,15.61,8.77,25.03,23.35,24.89
				c3.49-0.03,5.25-1.35,5.6-5.03c0.35-3.78-0.06-7.08-3.99-8.55c-6.66-2.48-7.25-3.32-7.13-10.77
				C223.16,212.19,223.81,173.78,224.45,135.36z M388.31,333.13c0.09-12.05-2.8-23.14-8.88-33.34c-15.98-26.8-49.3-26.59-64.75,0.48
				c-12.51,21.92-8.64,52.46,8.9,70.19c17.5,17.69,44.2,14.03,57.11-7.72C386.08,353.66,388.32,343.75,388.31,333.13z M182.48,210.1
				c5.34-4.17,7.82-9.59,8-16.37c0.51-19.27,1.11-38.54,1.55-57.81c0.07-2.98-0.3-6.02-0.85-8.95c-0.64-3.37-2.36-4.91-5.75-3.04
				c-3.89,2.14-7.8,4.36-11.92,5.86c-7.61,2.78-10.81,8.9-11.33,16.76c-0.83,12.7-1.28,25.43-1.68,38.16
				c-0.23,7.16-0.04,14.34-0.04,22.01c8.08-2.22,16.46-4.52,26.07-7.16C184.95,203.68,183.77,206.75,182.48,210.1z M116.24,339.29
				c19.37-1.58,38.82-3.17,58.26-4.76c0.77-8.7,1.48-16.79,2.23-25.35c-2.68,0.25-5.16,0.83-7.59,0.64
				c-4.15-0.34-5.89,1.96-6.83,5.81c-0.75,3.04-1.76,6.01-2.66,9.01c-0.28-0.09-0.56-0.17-0.84-0.26c0.59-4.26,1.18-8.52,1.87-13.56
				c-8.14,0.8-15.91,1.37-23.62,2.47c-1.73,0.25-3.86,1.98-4.7,3.66c-1.57,3.14-2.32,6.74-3.41,10.14c-0.27-0.06-0.53-0.12-0.8-0.18
				c0.4-4.21,0.81-8.41,1.24-12.92c-3.4,0.22-6.37,0.41-9.34,0.61c-0.15-0.67-0.3-1.34-0.44-2.01c2.1-0.73,4.17-1.55,6.29-2.17
				c2.05-0.6,4.74-0.29,6.11-1.62c3.17-3.08,5.71-6.9,8.42-10.31C122.22,298.09,109.93,318.36,116.24,339.29z M480.11,387.23
				c-3.43-5.51-6.88-11.22-10.57-16.75c-0.65-0.97-2.33-1.62-3.53-1.61c-16.44,0.16-32.89,0.43-49.33,0.81
				c-1.17,0.03-2.87,0.78-3.4,1.77c-2.61,4.88-4.9,9.95-7.71,15.78C430.92,387.23,455.56,387.23,480.11,387.23z M130.99,282.89
				c24.02-3.93,47.94-7.85,71.89-11.77c-1.72-3.58-3.25-6.79-4.82-10.06c-0.57,0-1.2-0.1-1.79,0.01
				c-19.55,3.69-39.11,7.37-58.66,11.11c-7.39,1.41-7.38,1.47-6.99,9.79C130.62,282.13,130.73,282.28,130.99,282.89z M94.23,291.68
				c11.52,16.24,10.63,34.83,12.85,52.29c2.28,0,4.19,0,5.39,0c0-8.43-0.82-16.53,0.18-24.36c1.77-13.76,10.34-22.2,22.36-23.69
				c3.03-0.38,6.05-0.79,9.07-1.19c0-0.47,0.01-0.93,0.01-1.4C127.81,292.79,111.53,292.25,94.23,291.68z M388.81,112.14
				c-19.42-8.58-39.3-14.06-60.05-17.43c0.38,2.79,0.69,4.77,0.92,6.75c1.15,9.77,4.33,12.75,13.45,12.45
				c13.74-0.45,27.48-0.93,41.21-1.41C385.84,112.45,387.32,112.26,388.81,112.14z M231.15,254.58c2.21,1.97,4.49,3.02,5.12,4.77
				c1.38,3.79,3.66,3.78,6.68,3.31c10.66-1.64,21.35-3.1,32.02-4.72c1.11-0.17,2.67-0.67,3.12-1.54c1.83-3.52,3.3-7.25,5.19-11.54
				C265.5,248.17,248.62,251.32,231.15,254.58z M370.41,263.89c-15.59-12.31-35.34-12.48-49.58-0.32
				c-18.79,16.05-25.38,38.06-25.51,62.89c0.78-1.93,1.14-4,1.42-6.08c1.87-14.01,6.14-27.04,14.37-38.25
				c11.18-15.22,25.01-24.85,44.01-22.14C360,260.69,364.76,262.42,370.41,263.89z M94.04,347.51c-1.68-7.15-2.53-13.84-4.85-19.89
				c-2.91-7.57-9-7.93-12.38-0.7c-6.45,13.75-6.77,28.11-0.61,42.1c2.93,6.66,9.28,6.57,11.97-0.26
				C90.84,361.97,92.15,354.57,94.04,347.51z M266.31,386.46c10.98,0,21.97,0,33.06,0c-2.08-4.97-3.9-9.69-6.06-14.22
				c-0.46-0.97-2.16-1.75-3.3-1.76c-4.52-0.06-9.06,0.06-13.57,0.46c-1.29,0.12-3.02,1.07-3.65,2.21
				C270.46,377.4,268.51,381.87,266.31,386.46z M436.45,74.65c-2.03-3.39-3.65-7.04-6.08-9.9c-3.36-3.96-7.93-3.08-10.57,1.46
				c-3.54,6.07-0.14,19.88,5.73,23.3c2.92,1.7,6.54,0.13,7.94-3.09c0.83-1.91,2.25-3.53,3.88-6.01c-2.27,0.39-4.53,0.99-6.8,1.07
				c-1.28,0.05-2.6-0.76-3.9-1.18c0.64-1.13,1.04-2.84,1.96-3.28C430.81,75.98,433.25,75.56,436.45,74.65z M119.52,349.31
				c2.37,6.81,5.69,9.35,11.9,9.08c4.53-0.2,9.05-0.44,13.58-0.63c10.59-0.43,21.18-0.84,32.11-1.27c-0.08-1.82-0.14-3.22-0.23-5.34
				c-8.39,2.79-11.91-3.79-15.86-9.57c-0.3,0.32-0.59,0.64-0.89,0.96c1.49,2.98,2.98,5.96,4.72,9.43
				c-4.84,0.35-9.59,0.09-14.08,1.14c-9.11,2.14-15.85-0.58-20.36-9.4c-0.09-0.17-0.43-0.2-1.92-0.85
				c2.45,4.44,4.33,7.86,6.19,11.25C126.87,354.95,126.87,354.95,119.52,349.31z M167.99,295.22c-16.82-0.28-28.04,4.8-30.43,13.85
				c4.4-0.47,8.77-1.47,13.09-1.28c8.45,0.37,14.16-3.23,17.24-11.66C167.94,295.99,167.93,295.82,167.99,295.22z M138.22,387.97
				c8.31,0,16.44,0,24.79,0c-1.86-3.69-3.34-6.78-4.98-9.76c-0.41-0.74-1.34-1.56-2.07-1.6c-4.04-0.21-8.36-1.1-12.05,0.12
				c-1.92,0.63-2.74,5.11-4.06,7.85C139.35,385.61,138.85,386.65,138.22,387.97z M248.8,220.48c0,0.84-0.22,1.76,0.04,2.49
				c0.6,1.66,1.43,3.22,2.16,4.82c1.71-0.91,3.68-1.51,5.04-2.84c0.86-0.84,1.32-2.89,1.05-4.17c-0.73-3.44,2.74-8.7-3-10.03
				C250.51,209.93,249,213.06,248.8,220.48z M448.27,98.18c2.93,14.36,4.24,15.35,16.31,12.48
				C459.13,106.48,454.02,102.57,448.27,98.18z M166.69,304.95c10.53,1.37,13.63-1.43,13.08-11.34
				C172.43,293.44,170.21,299.69,166.69,304.95z M442.71,85.61c-0.39,0-0.78,0.01-1.18,0.01c-0.44,5.07-4.19,10.4,1.18,15.16
				C442.71,95.62,442.71,90.62,442.71,85.61z M329.52,163.42c-1.88-1.36-3.16-2.99-4.16-2.81c-0.96,0.17-2.13,2.15-2.26,3.44
				c-0.08,0.78,1.75,2.59,2.54,2.47C326.8,166.36,327.8,164.89,329.52,163.42z M329.52,186.53c-1.89-1.33-3.18-2.94-4.17-2.75
				c-0.97,0.19-2.14,2.16-2.25,3.44c-0.07,0.81,1.77,2.62,2.56,2.49C326.82,189.52,327.81,188.03,329.52,186.53z M325.26,157.36
				c1.5-2.15,2.89-3.31,3-4.59c0.08-0.92-1.49-2.68-2.47-2.8c-0.85-0.11-2.62,1.47-2.7,2.41C323,153.63,324.16,155,325.26,157.36z
				 M325.3,180.46c1.48-2.15,2.86-3.31,2.96-4.58c0.07-0.91-1.52-2.63-2.51-2.75c-0.85-0.1-2.6,1.49-2.66,2.43
				C323.02,176.81,324.19,178.16,325.3,180.46z M329.64,198.03c-2.01-1.31-3.2-2.66-4.38-2.66c-0.78,0-2.21,1.96-2.17,2.99
				c0.04,1.03,1.64,2.89,2.38,2.8C326.67,201.01,327.73,199.56,329.64,198.03z"/>
			<path d="M302.7,215.6c-5.81,1.8-11.58,3.79-17.46,5.31c-2.77,0.72-4.59-1.18-4.62-4.21c-0.09-9.37-0.1-18.75,0.13-28.12
				c0.04-1.64,1.06-4.27,2.19-4.69c5.95-2.23,12.03-4.13,18.19-5.49c0.84-0.19,3.32,3.2,3.43,5.05c0.53,8.85,0.67,17.73,0.55,26.6
				c-0.03,1.92-1.68,3.82-2.58,5.73C302.53,215.77,302.7,215.6,302.7,215.6z"/>
			<path d="M534.15,239.14c-9.55-14.92-24.51-19.87-38.75-25.44c-11.86-4.64-24.27-7.76-36.59-10.89c-4.37-1.11-6.38-3.61-6.79-7.63
				c-0.72-7.15-0.93-14.37-1.23-21.57c-0.15-3.64-0.03-7.29-0.03-11.42c24.88,4.84,48.94,10.9,71.94,23.73
				c-0.71-15.48-1.3-30.03-2.09-44.56c-0.29-5.32,1.27-9.18,6.02-11.24c0.24-0.1,0.57,0.05,1.16,0.11
				c-0.18,3.06-2.37,7.62,3.26,6.99C532.08,171.06,533.11,204.88,534.15,239.14z"/>
			<path d="M482.32,257.78c-9.69,0-19.38,0.16-29.06-0.05c-7.96-0.17-14.51-3.23-18.66-11.18c-2.74-5.25-6.13-10.11-9.11-15.22
				c-2.89-4.96-2.2-7.1,2.94-8.96c12.07-4.38,24.56-4.24,36.62-1.29c12.25,3,24.24,7.57,36,12.43c8.78,3.63,13.27,12.42,17.42,20.92
				c1.74,3.57-0.76,6.5-5.23,6.32c-9.22-0.38-18.43-0.99-27.64-1.51c-1.09-0.06-2.19-0.12-3.28-0.18
				C482.32,258.63,482.32,258.21,482.32,257.78z M432.53,226.02c2.59,4.77,4.84,8.75,6.94,12.82c3.62,7.01,9.04,11.95,16.29,13.18
				c10.12,1.72,20.41,2.31,30.71,3.39c0.17-4.48-1.35-5.98-4.72-5.94c-13.07,0.14-23.73-4.62-29.26-18.15
				c-2.86-7-7.69-7.79-13.65-6.62C437.02,225.05,435.19,225.46,432.53,226.02z M506.36,257.01c3-0.68,5.68-1.28,8.35-1.88
				c-1.39-3.04-2.77-6.07-4.24-9.28C509.02,249.78,507.92,252.76,506.36,257.01z M463.81,230.18c1.44,3.19,2.44,4.84,2.93,6.65
				c0.46,1.73,0.38,3.62,0.53,5.44c0.64-0.03,1.27-0.05,1.91-0.08c0-3.1,0.4-6.3-0.21-9.26
				C468.75,231.86,466.14,231.35,463.81,230.18z M494.91,242.16c0,3.34,0,6.27,0,9.25C499.08,247.58,499.06,244.09,494.91,242.16z"
				/>
			<path d="M540.08,141.94c0.42-4.16,2.84-5.15,5.7-4.86c4.98,0.51,10.11,0.75,14.83,2.31c2.99,0.98,5.48,3.99,7.91,6.41
				c0.67,0.67,0.84,3.32,0.38,3.65c-3.35,2.35-1.44,5.57-1.1,8.18c0.21,1.63,1.93,3.43,3.41,4.37c1.82,1.16,4.1,1.52,6.2,2.24
				c-1.43,3.38-1.43,3.38-9.07,2.07c2.97,33.14,5.93,66.07,8.97,100.01c-7.84-1.11-15.3-2.61-22.82-3.11
				c-9.69-0.64-14.67-6.34-17.03-16.46c1.1,0.62,1.83,1.03,2.85,1.61c0-3.34,0-6.48,0-9.63c0.44-0.13,0.88-0.26,1.31-0.39
				c0.72,2.63,1.64,5.22,2.12,7.9c1.55,8.8,3.61,11.08,11.69,12.41c5.24,0.86,10.5,1.68,16.38,2.62c-0.23-4.34-0.34-8.26-0.66-12.17
				c-2.39-29.42-4.82-58.83-7.25-88.25c-0.1-1.17-0.29-2.33-0.49-3.48C560.82,142.55,553.63,140.64,540.08,141.94z"/>
			<path d="M577.48,146.34c5.49,3.52,10.66,6.34,15.29,9.95c6.45,5.02,8.44,12.95,9.19,20.81c2.56,27.03,4.67,54.11,6.92,81.17
				c0.17,2,0.27,4.07-0.04,6.02c-0.65,4.1-2.38,6.71-7,5.84c-6.28-1.18-12.64-1.91-18.96-2.84c-0.18-0.6-0.36-1.19-0.54-1.79
				c1.35-0.65,2.73-1.95,4.03-1.85c4.52,0.35,9,1.15,13.5,1.83c4.78,0.73,5.93-0.26,5.51-5.56c-0.68-8.69-1.58-17.36-2.37-26.04
				c-1.54-16.86-3.42-33.7-4.5-50.59c-0.74-11.55-4.84-20.01-14.68-25.46C577.19,154.17,577.42,153.7,577.48,146.34z"/>
			<path d="M569.51,137.47c-4.26-2.99-9.14-6.41-13.24-9.29C562.52,126.87,567.76,130.53,569.51,137.47z"/>
			<path d="M298.07,153.27c-3.2,0.97-5.55,1.78-7.94,2.39c-5.71,1.45-7.42,0.46-9.74-5.44c-3-7.66-4.92-8.58-12.21-5.85
				c-3.69,1.38-7.36,2.85-11.08,4.13c-2.78,0.96-4.75,0.3-5.79-3.12c-0.41-1.35-1.99-2.62-3.31-3.24c-2.41-1.13-5.14-1.48-7.54-2.64
				c-4.5-2.19-6.87-5.84-6.79-11.48c0.18-14.09,0.05-28.19,0.05-42.28c0-7.9,3.03-13.56,10.09-15.6
				c7.91-2.29,16.54-2.47,20.33-12.17c-2.28,5-4.56,10-7.09,15.56c-0.63,0-1.86-0.14-3.07,0.02c-10.32,1.34-16.05,5.66-15.14,18.25
				c0.78,10.86,0.51,21.8,0.76,32.7c0.2,8.87,2.8,12.04,10.85,13.52c3.55,0.65,7.1,1.28,10.62,2.06c4.25,0.94,6.72-1.06,7.51-5.35
				c0.51-2.77,0.66-5.66,0.59-8.48c-0.28-11.4-0.61-22.81-1.16-34.2c-0.14-2.9,0.74-4.16,3.21-5.09c7.67-2.89,15.25-6.05,22.88-9.07
				c4.93-1.95,8.71-0.25,9.54,5.2c2,13.19,3.46,26.48,5.24,40.48c-12.71-2.02-24.66-3.91-38.32-6.08c1.42,3.4,1.9,5.99,3.32,7.68
				C281.61,134.42,289.55,143.43,298.07,153.27z"/>
			<path d="M267.66,80.61c-4.31-10.37-3.84-15.1,1.01-19.19c3.64-3.07,8.19-2.06,15.26,3.77C276.29,67.29,268.87,69.38,267.66,80.61
				z"/>
			<path d="M267.27,125.56c-0.2,1.95-0.27,3.94-0.64,5.86c-1.07,5.6-2.98,6.92-8.25,5.92c-2.77-0.53-5.53-1.17-8.33-1.52
				c-3.71-0.47-5.32-2.88-6.23-7.81c3.76,5.85,8.65,3.59,12.81,4.52C262.12,133.76,265.01,130.41,267.27,125.56z"/>
			<path d="M405.8,327.38c75.18-4.82,149.48-6.87,223.08,9.65c0.15,0.59,0.29,1.18,0.44,1.77c-2.23,0.96-4.44,2.7-6.68,2.73
				c-9.22,0.13-18.46,0.13-27.65-0.52c-53.64-3.83-107.31-5.69-161.06-3.49c-4.68,0.19-9.43,0.45-14.04-0.16
				C414.19,336.59,409.39,333.67,405.8,327.38z"/>
			<path d="M515.37,313.59c-12.62-0.8-24.33-1.3-35.97-2.52c-1.97-0.21-4.59-3.16-5.25-5.41c-0.94-3.21-0.93-7.09-0.18-10.38
				c0.39-1.72,3.31-4.07,4.96-3.96c9.04,0.62,18.17,1.25,26.98,3.33c3.03,0.72,5.73,5.29,7.59,8.71
				C514.88,305.95,514.69,309.51,515.37,313.59z M476.05,300.32c0.04,5.66,2.26,8.61,6.15,8.67c4.17,0.07,3.07-3.45,3.17-5.75
				c0.22-5.05-2.09-8.69-5.13-8.63C476.39,294.7,475.73,297.38,476.05,300.32z M486.6,296.39c1.76,0.28,3.53,0.84,5.28,0.8
				c8.9-0.22,15.48,3.13,18.1,12.94c0.03,0.11,0.5,0.08,0.77,0.12C509.4,298.58,501.86,294.04,486.6,296.39z"/>
			<path d="M581.42,288.74c0,5.27,0,10.22,0,16.41c-8.2-2.32-16.04-3.95-23.45-6.83c-5.61-2.18-5.35-8.78-7.3-14.87
				C561.43,285.31,571.37,287.01,581.42,288.74z"/>
			<path d="M591.04,289.69c6.63,1.31,12.76,2.29,18.73,3.94c0.96,0.26,1.38,3.47,1.73,5.38c0.54,2.96-0.33,5.81-3.28,6.18
				c-5.72,0.72-11.52,0.75-17.18,1.06C591.04,299.97,591.04,295.19,591.04,289.69z"/>
			<path d="M224.43,271.43c-9.82-0.3-16.27-7.94-16.17-18.84c0.25-27.86,0.56-55.73,0.93-83.59c0.63-46.83,1.33-93.65,2.02-140.48
				c0.04-3.01-0.5-6.34,3.46-8.86c0,3.02,0.02,5.26,0,7.51c-0.82,72.51-1.56,145.01-2.54,217.52
				C211.98,256.06,214.09,265.69,224.43,271.43z"/>
			<path d="M368.29,334.16c-1.23,4.75-1.87,10.22-4,14.9c-8.8,19.31-31.47,20.68-42.76,2.91c-5.61-8.82-7.25-18.41-5.09-28.73
				c2.62-12.52,11.87-21.56,22.5-22.25c11.3-0.73,22.24,6.94,26.18,18.84C366.57,324.19,367.15,328.88,368.29,334.16z
				 M325.62,337.93c1.31,3.35,2.17,6.4,3.61,9.09c5.44,10.16,14.6,10.99,21.85,2.14c8.35-10.19,7.01-28.64-2.76-37.31
				c-4.29-3.8-9.17-5.17-14.45-2.87c-5.81,2.53-8.56,7.78-10.98,15c3.07-2.92,5.1-4.85,8.04-7.65c-2.96,12.97-1.96,23.56,7.99,31.5
				c-0.48,0.38-0.96,0.76-1.45,1.14C333.73,345.47,329.97,341.97,325.62,337.93z"/>
			<path d="M360.13,294.52c-2.22,1.9-3.72,4.08-4.75,3.85c-1.51-0.33-3.63-2.33-3.72-3.74c-0.08-1.36,1.98-3.84,3.31-4.03
				C356.23,290.43,357.78,292.61,360.13,294.52z"/>
			<path d="M370.42,312.5c-1.56-2.51-3.45-4.28-3.16-5.39c0.41-1.57,2.35-3.49,3.81-3.68c1.08-0.14,3.53,2.41,3.41,3.5
				C374.28,308.58,372.38,309.99,370.42,312.5z"/>
			<path d="M378.48,356.19c-2.82,1.7-4.46,3.5-5.61,3.19c-1.55-0.41-2.71-2.46-4.04-3.8c1.31-1.21,2.61-3.36,3.93-3.37
				C374.22,352.2,375.7,354.14,378.48,356.19z"/>
			<path d="M384.55,332.21c-2.87,1.47-4.43,2.94-5.88,2.82c-1.29-0.11-2.45-1.98-3.67-3.08c1.31-1.18,2.56-3.19,3.94-3.3
				C380.31,328.55,381.81,330.36,384.55,332.21z"/>
			<path d="M335.28,288.35c1.6,2.34,3.23,3.68,3.2,4.99c-0.03,1.32-1.71,2.6-2.66,3.9c-1.22-1.22-3.09-2.26-3.44-3.72
				C332.12,292.43,333.82,290.8,335.28,288.35z"/>
			<path d="M341.15,369.9c-2.25,1.64-3.57,3.35-4.76,3.25c-1.26-0.11-2.39-1.93-3.57-3.01c1.09-1.15,2.1-3.1,3.3-3.24
				C337.36,366.76,338.76,368.38,341.15,369.9z"/>
			<path d="M356.71,365.35c1.48,2.29,3.13,3.74,2.99,4.94c-0.15,1.21-2.12,3.06-3.22,3.01c-1.14-0.06-2.98-2.01-3.06-3.24
				C353.33,368.86,355.09,367.52,356.71,365.35z"/>
			<path d="M319.91,302.92c1.31,1.86,2.69,2.97,2.63,3.96c-0.07,1.11-1.47,2.11-2.29,3.16c-0.98-1.03-2.44-1.91-2.76-3.13
				C317.28,306.11,318.71,304.81,319.91,302.92z"/>
			<path d="M320.67,361.82c-1.2-1.86-2.39-2.93-2.46-4.09c-0.05-0.75,1.65-2.41,2.32-2.27c1.09,0.22,2.63,1.47,2.77,2.48
				C323.43,358.85,321.95,360.03,320.67,361.82z"/>
			<path d="M91.01,358.46c-1.03,2.86-1.81,5.59-2.98,8.12c-1.72,3.7-3.59,3.78-5.72,0.24c-0.9-1.5-1.78-3.36-1.81-5.08
				c-0.15-7.46-0.18-14.94,0.19-22.39c0.1-1.94,1.42-4.33,2.88-5.52c1.44-1.17,4.82-2.11,5.51-1.32c1.75,2.02,3.15,4.69,0.38,7.84
				c-1.76,1.99-1.95,5.46-3.38,7.91C82.57,354.29,87.03,355.88,91.01,358.46z"/>
			<path d="M87.41,327.81c-2.98,2.24-5.74,4.33-8.36,6.3c0.08-0.68,0.25-2.01,0.48-3.84c-1.23,0.83-2.16,1.47-3.09,2.1
				c-0.24-0.18-0.48-0.36-0.72-0.54c1.46-2.19,2.55-4.89,4.45-6.47C83.98,322.2,85.85,325.72,87.41,327.81z"/>
			<path d="M75.6,348.1c0.94,8.66,0.62,16.72,6.74,22.7C76.33,369.41,72.23,356.48,75.6,348.1z"/>
			<path d="M91.93,348.56c-0.17,2.24-0.34,4.48-0.54,7.08c-3.75-0.27-4.36-2.84-3.92-5.4c0.2-1.18,2.1-2.02,3.22-3.02
				C91.1,347.66,91.52,348.11,91.93,348.56z"/>
			<path d="M40.69,331.77c0.42-0.44,0.94-0.82,1.26-1.34c2.91-4.72,3.65-4.7,6.5,0.28c-1.78,1.82-3.58,3.66-5.33,5.44
				c-0.59-1.17-1.43-2.85-2.29-4.53C40.81,331.64,40.69,331.77,40.69,331.77z"/>
			<path d="M39.96,352.59c1.21,7.18,2.35,13.94,3.35,19.87C40.64,371.04,38.23,360.52,39.96,352.59z"/>
			<path d="M335.66,333.52c5.88,0,11.73,0,17.6,0c-0.35,7.49-3.35,12.48-7.39,12.59C341.25,346.23,336.88,340.89,335.66,333.52z"/>
		</g>
	</g>
</g>
</svg>
