<?xml version="1.0" encoding="UTF-8"?>
<svg id="Layer_1" xmlns="http://www.w3.org/2000/svg" version="1.1" viewBox="0 0 500 500">
  <!-- Generator: Adobe Illustrator 30.2.1, SVG Export Plug-In . SVG Version: 2.1.1 Build 1)  -->
  <defs>
    <style>
      .st0 {
        fill: #010101;
      }

      .st1 {
        fill: #ede9e2;
      }

      .st2 {
        fill: #fff;
      }
    </style>
  </defs>
  <rect class="st1" y=".8" width="500" height="499.2"/>
  <g>
    <path class="st2" d="M450.5,297.9l-5.2-37.4-14.3-61.5-24.9-19.7-30.9-1.1-45,1.4-2.4-13.3-1.2,4-3.7-6.6.7-5.9,1-1.3-1.9-1.8-1.1-11.2-9.9-4-5.8,8.2-45.6-11.1-26.4-2.6-45.8-16.5-1.4-11.1-11.3,1.1-11.5,6.5-7.6-3.1-33.3,6.7-5.8,37.5-2.5,109.9,5.1,23.3-23.8,2.6-7.4,11.3-29.9,6.1-5.2,34.3,8.5,5.6,4.9,13.4,42.8-14,82.6-4.4,30.5-12.1,16.6,26.1,35.4.7,27.3-23.6,148.2,1.9,6.6-17.9-6.3-20.1ZM251.1,182.9l-5.7-24.3h18.4l41.3,19.2-54,5.2Z"/>
    <g id="zatq4L.tif">
      <g>
        <path class="st0" d="M41.8,363.3c6.4-.7,12.7-1.4,19.4-2.2-5.5-5.1-6.9-11.7-7.7-18.8-1.1-9.8-.4-19.3,2.7-28.6.7-2,1.5-3.9,2.5-5.7,1.8-3.1,4.2-5.1,7.9-4.8,1.6.1,3.4-.3,5,0,7.5,1.5,12-3.2,16.2-8.7,2.2-2.9,5.1-3.7,8.2-4,5.2-.6,10.5-1,16-1.6,0-1.2.2-2.2.2-3.3.8-38,1.7-76,2.5-114,.3-11.9.4-23.8.9-35.6.2-4.2.7-8.4,1.8-12.4,2-7.1,7-11,13.5-13,11.6-3.5,23.3-3.8,35.1-2.4,1.2.1,2.7-.2,3.6-1,6-5.1,11.9-3.4,17-1.1.4.2,1,.5,1,.7.1,3.9,3.2,3.4,5.3,4.3,15.9,6.3,31.8,12.8,47.8,18.9,3.3,1.3,7.1.9,10.6,1.5,18.1,3.2,35.8,8.4,53,15.5.5.2,1,.3,1.6.4.2-.5.3-.9.4-1.3.6-3.3,1.8-6.3,5.4-6.9,4-.7,7.4.5,9.9,4,.4.6.8,1.3,1.1,2,2,4.8,4,9.5,6,14.3.4.8,1.1,1.6,1.8,2.2,4.9,4.1,9.8,8.2,14.8,12.1.9.7,2.3,1.1,3.4,1.1,19.2-.7,38.3,1,57.3,4.2,5.4.9,10.3,2.9,13.9,7.9,1.3,1.9,3.8,2.9,5.9,4.1,8.3,4.7,12.6,12.1,13.6,22,1.5,14.9,3.2,29.8,4.9,44.7,0,.8.4,1.8.8,2.4,3.4,4.6,4.5,10.1,6.1,15.5,1.7,5.7,4.3,11,6.2,16.6,1.1,3.2,1.8,6.6,1.9,10,.2,7.2,0,14.4-.2,21.7-.1,6.2-3.4,10.8-9.1,11.7-4.9.8-9.9.8-14.9.9-6.1.2-12.2.3-18.3.6-.9,0-2.3.6-2.7,1.3-2,3.7-3.4,7.9-5.8,11.3-2.4,3.4-5.6,6.1-8.7,9.4,18.7,1.1,37.3,1,55.7,3.9,0,.5,0,1,0,1.5-3.9.6-7.9,1.4-11.8,1.6-23.4,1.1-46.8,2.3-70.2,3-80.4,2.3-160.9,2-241.3.3-25.7-.6-51.4-2-77.1-3.1-3.5-.2-7-.8-10.5-1.3-.9-.1-1.9-.6-2.8-.8,0-.4,0-.8,0-1.2ZM60.3,320.9c-2.8,9.2-2.8,18.5.4,27.6.3.9,1.7,2.1,2.4,2,.9-.1,1.8-1.4,2.9-2.4-3.4-1.1-4.4-4.2-4.3-13.3,0-4.4-.2-9.1,4.6-13,.3,2.5.9,4.2.6,5.6-.5,2.6-1.6,5.1-2.3,7.7-.7,2.6.4,4.1,3.4,5.1,0-3.8.3-7.2,0-10.6-.4-3.7-1.2-7.4-2.1-11-.2-.9-1.4-2.1-2.1-2.1-.9,0-1.9,1.1-2.5,2-.5.6-.6,1.6-.8,2.5h0ZM233.6,244.1h-.1c4.2-1.5,5.2-3,5-7.5,0-3.4-.1-6.9-.2-10.3-.1-4.5,0-9.2-4.4-11.6,4.8-3.7,6.6.9,9.5,3.4-.2-1.7-.5-3.3-1.4-4.4-4.3-5.3-8.7-10.4-13.1-15.6-4-4.7-7.9-9.4-11.9-14.1,5.7.7,11.1,1.9,16.4,3.3,1.9.5,4.8-.3,5,3.2.1,2.3.5,4.7,0,6.9-.4,1.7-2.1,3-3.2,4.4,2.4,2.6,5,5.5,8,8.8-.1-3-.8-5.6-.2-7.9.5-2.1,2.1-4.4,3.9-5.4,1.9-1,4.5-.6,7.3-.8v13.3c24.3-4.7,48.2-4.5,72.3-2v-27.7c-1,0-1.8-.2-2.7-.2-18.1.7-36.2,1.4-54.4,2.2-5.6.2-11.2.9-16.8.9-5.3,0-7.6-2.5-8.5-8.2-1.6-9.6-1.6-19.5-4.7-29,9.1,6.8,9.1,6.7,16.8,7.1,20.4,1.1,40,5.9,58.3,15.8,3.6,1.9,7,4,10.6,6-.6-2.4-1.7-4.3-2.7-6.3-.9-1.9-1.8-2.6-3.9-1.8-2.9,1.1-5.6.1-7.4-2.6-1.3-2.1-2.4-4.4-3.2-6.8-.7-2.2-1.7-3.5-3.8-4.3-18.5-7.7-37.7-12.8-57.2-16.3-2.1-.4-4.9.3-6.7,1.5-3,2.1-6.3,2.6-9.4,3.9-4.7,2-7.8-.4-11.6-3,5.2-1.3,10-2.6,14.8-3.8,0-.3,0-.7,0-1-14.8-6.8-30.1-11.9-45.9-16.5-.9,36.6-1.8,72.6-2.6,109,2.6-.6,4.8-1.2,7.4-1.8v3.6c0,8.9,0,17.8,0,26.7,0,7.6,2.6,9.7,9.5,8.3,6.2-1.3,12.4-2.5,18.6-4,1.6-.4,3.1-1.9,4.6-2.9-.2-.3-.3-.6-.5-.9-.7.1-1.4.2-2.1.3-7.2,1.6-14.4,3.2-21.6,4.7-3.7.8-6-.9-6.5-5,0-.9-.1-1.8,0-2.7.4-15,.8-30,1.4-45,0-2,1-3.9,1.6-5.8.2,0,.4.2.5.3v21c7.4-1.9,14.7-3.7,21.2-5.3-1,2.9-3,5.9-3.1,9.1-.2,7.1.3,14.2.9,21.3.1,1.3,1.8,3.2,3.1,3.5,4.7,1.2,11-2.7,13.2-7.6ZM448.5,289.2c-4.5-5.2-6-11.2-6.8-17.6-.3-2.1-1.6-4-2.4-6-.6-1.6-1.6-3.3-1.8-5-1.5-14.9-2.7-29.8-4.3-44.7-1.1-10.2-6.9-16.8-15.6-20.7-1.1-.5-2.3-1.5-2.9-2.7-2.3-4.8-6.1-7.2-10.9-7.8-14.3-1.5-28.7-3-43-4.4-2.3-.2-4.7,0-7.6,0,5.1,3.8,9.7,7.3,14.3,10.8,1.2.9,2.4,1.9,3,3.2.5,1.2.3,2.8.3,4.3-1.3-.5-2.8-.8-4-1.5-.6-.4-.9-1.5-1.4-2.1-1.1-1.3-2.1-2.7-3.3-3.8-2.9-2.4-6.2-4.3-8.7-6.9-5.8-6.1-12.7-4.3-19.7-4.4,1,4.5,1.6,8.6,2.8,12.6,1.1,3.8,2.8,7.4,4.3,11.3-3.3.4-4.5-1.3-5-3.8-1.3-5.9-2.6-11.9-4.1-17.8-.2-1-1-1.8-1.5-2.6-.6,9.5-.6,18.5-.6,27.4,0,9,.3,18,.4,26.7-9.6-.7-19.8-1.9-30-2.1-10.4-.2-21.2-.9-31.2,1.4-24.7,5.6-41.7,21.9-48.8,48.2-3.1,11.4-4.1,23.5-5.7,35.3-.4,3-1.2,3.9-3.9,4-7.2.3-14.5.8-21.7,1.4-2.5.2-3.6-.6-4.3-3.2-2.2-7.9-3-16.4-9-22.6-.1-.1,0-.4-.1-.8.9-.2,1.8-.5,2.7-.6,10.6-1.6,21.1-3.2,31.7-4.9,1-.2,2.4-1,2.8-1.8.8-2.3,1.1-4.8,1.7-7.5-1.2,0-2.1.1-3,.2-14.7,2.1-29.3,4.8-44.1,6.2-7.1.6-10,4.4-11.7,10.8-.1.4-.2.9-.4,1.3-2.7,9.3-2.5,18.9-2.4,28.4,0,2.6.2,5.3.4,8.2,23.4-1.6,46.4-3.2,69.8-4.8,0-2.3,0-4.3,0-6.3,0-11.5,1.2-22.8,3.8-34,2.7-11.6,6.7-22.4,15.3-30.6,9.2-8.8,20.1-10.1,30.7-3.5,7.3,4.6,12.1,11.7,16.1,19.4,1.2,2.2,2.3,2.8,4.6,2.5,8.7-.9,17.3-1.7,26-2.2,31.7-1.8,63.2,1.4,94.5,6.4,11.5,1.9,22.8,4.4,34.8,6.7ZM293,283.9c.2,1.1.3,1.6.4,2.1,1.6,9.1,3.5,18.2,4.7,27.4.9,6.9,4.2,12.3,10.6,13.9,4.1,1,8.4,1.2,12.6,1.2,28,.3,55.9.3,83.9.8,11.8.2,23.6,1.4,35.4,2,7.4.4,11.2-3.7,11.2-11.6,0-3.3.2-6.7,0-10-.2-4-.7-7.9-1.3-11.9-.3-2.2-1.7-3.5-4-4-13-2.6-26-5.7-39-8-12.3-2.1-24.6-3.9-37-5.1-21.7-2-43.5-1-65.2,1.4-4,.4-8,1.1-12.3,1.7ZM136.6,246.5c.2-.2.4-.4.7-.7-.2-1.7-.8-3.5-.7-5.2.5-14.5,1.1-29.1,1.7-43.6.2-4.4,2.2-8.2,5.6-10.3,4.3-2.7,9.1-4.7,13.8-7,2.3-1.1,3.6.2,4,2.5.3,1.4.2,2.9.1,4.3-.3,12.8-.7,25.5-1.1,38.3,0,2.5,0,5,0,7.9,1.3-.4,2.4-.8,3.3-1,.1-.5.2-.7.2-1,.7-38,1.4-76,2.1-114,0-2-.6-2.7-2.4-3-9.8-1.4-19.4,0-29,2.4-3.8.9-6.8,3.5-8,7.3-1.6,5.2-3.4,10.7-3.5,16.1-1.1,33.2-1.8,66.4-2.6,99.6,0,1.1,0,2.2,0,3.6,4.4-1.1,8.5-2,12.2-2.9,1.3,2.4,2.4,4.5,3.5,6.6ZM181.8,191h.3c0-5.7,0-11.3,0-17,.3-20.1.6-40.2,1-60.3,0-1.6.2-3.1-1.7-3.7-4.7-1.4-10.3,2.4-10.4,7.6-.5,49.7-1.4,99.5-2.2,149.2-.2,10.3,5.8,16.6,15.5,16.5,2.3,0,3.5-.9,3.7-3.3.2-2.5,0-4.7-2.6-5.7-4.4-1.6-4.8-2.2-4.7-7.1.4-25.4.8-50.8,1.3-76.3ZM290.3,321.9c0-8-1.9-15.3-5.9-22.1-10.6-17.7-32.6-17.6-42.8.3-8.3,14.5-5.7,34.7,5.9,46.4,11.6,11.7,29.2,9.3,37.8-5.1,3.6-6,5-12.6,5-19.6ZM154.1,240.5c3.5-2.8,5.2-6.3,5.3-10.8.3-12.8.7-25.5,1-38.3,0-2-.2-4-.6-5.9-.4-2.2-1.6-3.2-3.8-2-2.6,1.4-5.2,2.9-7.9,3.9-5,1.8-7.2,5.9-7.5,11.1-.5,8.4-.8,16.8-1.1,25.3-.2,4.7,0,9.5,0,14.6,5.3-1.5,10.9-3,17.3-4.7-1,2.7-1.8,4.8-2.7,7ZM110.2,326c12.8-1,25.7-2.1,38.6-3.1.5-5.8,1-11.1,1.5-16.8-1.8.2-3.4.5-5,.4-2.7-.2-3.9,1.3-4.5,3.8-.5,2-1.2,4-1.8,6-.2,0-.4-.1-.6-.2.4-2.8.8-5.6,1.2-9-5.4.5-10.5.9-15.6,1.6-1.1.2-2.6,1.3-3.1,2.4-1,2.1-1.5,4.5-2.3,6.7-.2,0-.4,0-.5-.1.3-2.8.5-5.6.8-8.5-2.2.1-4.2.3-6.2.4,0-.4-.2-.9-.3-1.3,1.4-.5,2.8-1,4.2-1.4,1.4-.4,3.1-.2,4-1.1,2.1-2,3.8-4.6,5.6-6.8-12-.3-20.2,13.1-16,27ZM351,357.7c-2.3-3.6-4.6-7.4-7-11.1-.4-.6-1.5-1.1-2.3-1.1-10.9.1-21.8.3-32.6.5-.8,0-1.9.5-2.2,1.2-1.7,3.2-3.2,6.6-5.1,10.4h49.3ZM120,288.7c15.9-2.6,31.7-5.2,47.6-7.8-1.1-2.4-2.2-4.5-3.2-6.7-.4,0-.8,0-1.2,0-12.9,2.4-25.9,4.9-38.8,7.4-4.9.9-4.9,1-4.6,6.5,0,.1,0,.2.2.6ZM95.7,294.5c7.6,10.7,7,23,8.5,34.6h3.6c0-5.6-.5-10.9.1-16.1,1.2-9.1,6.8-14.7,14.8-15.7,2-.3,4-.5,6-.8,0-.3,0-.6,0-.9-10.8-.4-21.5-.7-33-1.1ZM290.6,175.7c-12.9-5.7-26-9.3-39.7-11.5.3,1.8.5,3.2.6,4.5.8,6.5,2.9,8.4,8.9,8.2,9.1-.3,18.2-.6,27.3-.9,1,0,2-.2,3-.2ZM186.3,269.9c1.5,1.3,3,2,3.4,3.2.9,2.5,2.4,2.5,4.4,2.2,7.1-1.1,14.1-2.1,21.2-3.1.7-.1,1.8-.4,2.1-1,1.2-2.3,2.2-4.8,3.4-7.6-11.8,2.2-22.9,4.3-34.5,6.4ZM278.4,276.1c-10.3-8.1-23.4-8.3-32.8-.2-12.4,10.6-16.8,25.2-16.9,41.6.5-1.3.8-2.6.9-4,1.2-9.3,4.1-17.9,9.5-25.3,7.4-10.1,16.5-16.4,29.1-14.7,3.2.5,6.4,1.6,10.1,2.6ZM95.5,331.4c-1.1-4.7-1.7-9.2-3.2-13.2-1.9-5-6-5.2-8.2-.5-4.3,9.1-4.5,18.6-.4,27.9,1.9,4.4,6.1,4.3,7.9-.2,1.8-4.5,2.6-9.4,3.9-14.1ZM209.5,357.2h21.9c-1.4-3.3-2.6-6.4-4-9.4-.3-.6-1.4-1.2-2.2-1.2-3,0-6,0-9,.3-.9,0-2,.7-2.4,1.5-1.5,2.8-2.8,5.8-4.3,8.8ZM322.1,150.9c-1.3-2.2-2.4-4.7-4-6.6-2.2-2.6-5.2-2-7,1-2.3,4,0,13.2,3.8,15.4,1.9,1.1,4.3,0,5.3-2,.5-1.3,1.5-2.3,2.6-4-1.5.3-3,.7-4.5.7-.8,0-1.7-.5-2.6-.8.4-.7.7-1.9,1.3-2.2,1.5-.7,3.1-1,5.2-1.6ZM112.4,332.6c1.6,4.5,3.8,6.2,7.9,6,3-.1,6-.3,9-.4,7-.3,14-.6,21.2-.8,0-1.2,0-2.1-.2-3.5-5.6,1.8-7.9-2.5-10.5-6.3-.2.2-.4.4-.6.6,1,2,2,3.9,3.1,6.2-3.2.2-6.3,0-9.3.8-6,1.4-10.5-.4-13.5-6.2,0-.1-.3-.1-1.3-.6,1.6,2.9,2.9,5.2,4.1,7.4q-5.2.6-10-3.2ZM144.5,296.8c-11.1-.2-18.6,3.2-20.1,9.2,2.9-.3,5.8-1,8.7-.8,5.6.2,9.4-2.1,11.4-7.7,0,0,0-.2,0-.6ZM124.8,358.2h16.4c-1.2-2.4-2.2-4.5-3.3-6.5-.3-.5-.9-1-1.4-1.1-2.7-.1-5.5-.7-8,0-1.3.4-1.8,3.4-2.7,5.2-.3.7-.7,1.4-1.1,2.2ZM198,247.4c0,.6-.1,1.2,0,1.6.4,1.1.9,2.1,1.4,3.2,1.1-.6,2.4-1,3.3-1.9.6-.6.9-1.9.7-2.8-.5-2.3,1.8-5.8-2-6.6-2.4-.5-3.4,1.5-3.5,6.4ZM329.9,166.4c1.9,9.5,2.8,10.2,10.8,8.3-3.6-2.8-7-5.4-10.8-8.3ZM143.6,303.3c7,.9,9-.9,8.7-7.5-4.9-.1-6.3,4-8.7,7.5ZM326.3,158.1c-.3,0-.5,0-.8,0-.3,3.4-2.8,6.9.8,10v-10ZM251.4,209.6c-1.2-.9-2.1-2-2.8-1.9-.6.1-1.4,1.4-1.5,2.3,0,.5,1.2,1.7,1.7,1.6.8-.1,1.4-1.1,2.6-2.1ZM251.4,224.9c-1.3-.9-2.1-1.9-2.8-1.8-.6.1-1.4,1.4-1.5,2.3,0,.5,1.2,1.7,1.7,1.6.8-.1,1.4-1.1,2.6-2.1ZM248.5,205.6c1-1.4,1.9-2.2,2-3,0-.6-1-1.8-1.6-1.9-.6,0-1.7,1-1.8,1.6,0,.8.7,1.7,1.4,3.3ZM248.6,220.9c1-1.4,1.9-2.2,2-3,0-.6-1-1.7-1.7-1.8-.6,0-1.7,1-1.8,1.6,0,.8.7,1.7,1.5,3.2ZM251.4,232.5c-1.3-.9-2.1-1.8-2.9-1.8s-1.5,1.3-1.4,2c0,.7,1.1,1.9,1.6,1.9.8,0,1.5-1.1,2.8-2.1Z"/>
        <path class="st0" d="M233.6,244.1c-3.8,1.2-7.7,2.5-11.6,3.5-1.8.5-3-.8-3.1-2.8,0-6.2,0-12.4,0-18.6,0-1.1.7-2.8,1.4-3.1,3.9-1.5,8-2.7,12-3.6.6-.1,2.2,2.1,2.3,3.3.4,5.9.4,11.7.4,17.6,0,1.3-1.1,2.5-1.7,3.8,0,0,.1-.1.1-.1Z"/>
        <path class="st0" d="M386.8,259.7c-6.3-9.9-16.2-13.1-25.6-16.8-7.8-3.1-16.1-5.1-24.2-7.2-2.9-.7-4.2-2.4-4.5-5-.5-4.7-.6-9.5-.8-14.3,0-2.4,0-4.8,0-7.6,16.5,3.2,32.4,7.2,47.6,15.7-.5-10.2-.9-19.9-1.4-29.5-.2-3.5.8-6.1,4-7.4.2,0,.4,0,.8,0-.1,2-1.6,5,2.2,4.6.7,22.4,1.4,44.8,2.1,67.4Z"/>
        <path class="st0" d="M352.5,272.1c-6.4,0-12.8.1-19.2,0-5.3-.1-9.6-2.1-12.3-7.4-1.8-3.5-4.1-6.7-6-10.1-1.9-3.3-1.5-4.7,1.9-5.9,8-2.9,16.3-2.8,24.2-.9,8.1,2,16,5,23.8,8.2,5.8,2.4,8.8,8.2,11.5,13.8,1.2,2.4-.5,4.3-3.5,4.2-6.1-.3-12.2-.7-18.3-1-.7,0-1.4,0-2.2-.1,0-.3,0-.6,0-.8ZM319.5,251c1.7,3.2,3.2,5.8,4.6,8.5,2.4,4.6,6,7.9,10.8,8.7,6.7,1.1,13.5,1.5,20.3,2.2.1-3-.9-4-3.1-3.9-8.6,0-15.7-3.1-19.4-12-1.9-4.6-5.1-5.2-9-4.4-1.2.2-2.4.5-4.2.9ZM368.4,271.5c2-.4,3.8-.8,5.5-1.2-.9-2-1.8-4-2.8-6.1-1,2.6-1.7,4.6-2.7,7.4ZM340.2,253.8c1,2.1,1.6,3.2,1.9,4.4.3,1.1.3,2.4.4,3.6.4,0,.8,0,1.3,0,0-2.1.3-4.2-.1-6.1-.1-.7-1.9-1-3.4-1.8ZM360.8,261.7v6.1c2.8-2.5,2.7-4.8,0-6.1Z"/>
        <path class="st0" d="M390.7,195.4c.3-2.8,1.9-3.4,3.8-3.2,3.3.3,6.7.5,9.8,1.5,2,.6,3.6,2.6,5.2,4.2.4.4.6,2.2.3,2.4-2.2,1.6-1,3.7-.7,5.4.1,1.1,1.3,2.3,2.3,2.9,1.2.8,2.7,1,4.1,1.5q-.9,2.2-6,1.4c2,21.9,3.9,43.7,5.9,66.2-5.2-.7-10.1-1.7-15.1-2.1-6.4-.4-9.7-4.2-11.3-10.9.7.4,1.2.7,1.9,1.1v-6.4c.3,0,.6-.2.9-.3.5,1.7,1.1,3.5,1.4,5.2,1,5.8,2.4,7.3,7.7,8.2,3.5.6,6.9,1.1,10.8,1.7-.2-2.9-.2-5.5-.4-8.1-1.6-19.5-3.2-38.9-4.8-58.4,0-.8-.2-1.5-.3-2.3-1.7-9.8-6.5-11.1-15.4-10.2Z"/>
        <path class="st0" d="M415.4,198.3c3.6,2.3,7.1,4.2,10.1,6.6,4.3,3.3,5.6,8.6,6.1,13.8,1.7,17.9,3.1,35.8,4.6,53.7.1,1.3.2,2.7,0,4-.4,2.7-1.6,4.4-4.6,3.9-4.2-.8-8.4-1.3-12.5-1.9-.1-.4-.2-.8-.4-1.2.9-.4,1.8-1.3,2.7-1.2,3,.2,6,.8,8.9,1.2,3.2.5,3.9-.2,3.6-3.7-.4-5.8-1-11.5-1.6-17.2-1-11.2-2.3-22.3-3-33.5-.5-7.6-3.2-13.2-9.7-16.8-4.4-2.4-4.2-2.7-4.2-7.6Z"/>
        <path class="st0" d="M410.2,192.4c-2.8-2-6-4.2-8.8-6.1,4.1-.9,7.6,1.6,8.8,6.1Z"/>
        <path class="st0" d="M230.6,202.9c-2.1.6-3.7,1.2-5.3,1.6-3.8,1-4.9.3-6.4-3.6-2-5.1-3.3-5.7-8.1-3.9-2.4.9-4.9,1.9-7.3,2.7-1.8.6-3.1.2-3.8-2.1-.3-.9-1.3-1.7-2.2-2.1-1.6-.7-3.4-1-5-1.7-3-1.4-4.5-3.9-4.5-7.6.1-9.3,0-18.7,0-28s2-9,6.7-10.3c5.2-1.5,10.9-1.6,13.5-8.1-1.5,3.3-3,6.6-4.7,10.3-.4,0-1.2,0-2,0-6.8.9-10.6,3.7-10,12.1.5,7.2.3,14.4.5,21.6.1,5.9,1.9,8,7.2,8.9,2.3.4,4.7.8,7,1.4,2.8.6,4.4-.7,5-3.5.3-1.8.4-3.7.4-5.6-.2-7.5-.4-15.1-.8-22.6,0-1.9.5-2.8,2.1-3.4,5.1-1.9,10.1-4,15.1-6,3.3-1.3,5.8-.2,6.3,3.4,1.3,8.7,2.3,17.5,3.5,26.8-8.4-1.3-16.3-2.6-25.4-4,.9,2.2,1.3,4,2.2,5.1,5.1,6.1,10.4,12.1,16,18.6Z"/>
        <path class="st0" d="M210.4,154.8c-2.9-6.9-2.5-10,.7-12.7,2.4-2,5.4-1.4,10.1,2.5-5.1,1.4-10,2.8-10.8,10.2Z"/>
        <path class="st0" d="M210.2,184.6c-.1,1.3-.2,2.6-.4,3.9-.7,3.7-2,4.6-5.5,3.9-1.8-.4-3.7-.8-5.5-1-2.5-.3-3.5-1.9-4.1-5.2,2.5,3.9,5.7,2.4,8.5,3,3.6.8,5.5-1.4,7-4.6Z"/>
        <path class="st0" d="M301.8,318.1c49.7-3.2,98.9-4.5,147.6,6.4,0,.4.2.8.3,1.2-1.5.6-2.9,1.8-4.4,1.8-6.1,0-12.2,0-18.3-.3-35.5-2.5-71-3.8-106.6-2.3-3.1.1-6.2.3-9.3-.1-3.8-.5-6.9-2.4-9.3-6.6Z"/>
        <path class="st0" d="M374.3,309c-8.4-.5-16.1-.9-23.8-1.7-1.3-.1-3-2.1-3.5-3.6-.6-2.1-.6-4.7-.1-6.9.3-1.1,2.2-2.7,3.3-2.6,6,.4,12,.8,17.9,2.2,2,.5,3.8,3.5,5,5.8.9,1.7.8,4.1,1.2,6.8ZM348.3,300.2c0,3.7,1.5,5.7,4.1,5.7,2.8,0,2-2.3,2.1-3.8.1-3.3-1.4-5.8-3.4-5.7-2.5,0-3,1.8-2.8,3.8ZM355.3,297.6c1.2.2,2.3.6,3.5.5,5.9-.1,10.2,2.1,12,8.6,0,0,.3,0,.5,0-.9-7.7-5.9-10.7-16-9.2Z"/>
        <path class="st0" d="M418.1,292.5v10.9c-5.4-1.5-10.6-2.6-15.5-4.5-3.7-1.4-3.5-5.8-4.8-9.8,7.1,1.2,13.7,2.4,20.3,3.5Z"/>
        <path class="st0" d="M424.4,293.2c4.4.9,8.4,1.5,12.4,2.6.6.2.9,2.3,1.1,3.6.4,2-.2,3.8-2.2,4.1-3.8.5-7.6.5-11.4.7,0-4.2,0-7.3,0-11Z"/>
        <path class="st0" d="M181.8,281.1c-6.5-.2-10.8-5.3-10.7-12.5.2-18.4.4-36.9.6-55.3.4-31,.9-62,1.3-93,0-2-.3-4.2,2.3-5.9,0,2,0,3.5,0,5-.5,48-1,96-1.7,143.9,0,7.5,1.3,13.9,8.1,17.7Z"/>
        <path class="st0" d="M277,322.6c-.8,3.1-1.2,6.8-2.6,9.9-5.8,12.8-20.8,13.7-28.3,1.9-3.7-5.8-4.8-12.2-3.4-19,1.7-8.3,7.9-14.3,14.9-14.7,7.5-.5,14.7,4.6,17.3,12.5,1,2.9,1.3,6,2.1,9.5ZM248.8,325.1c.9,2.2,1.4,4.2,2.4,6,3.6,6.7,9.7,7.3,14.5,1.4,5.5-6.7,4.6-19-1.8-24.7-2.8-2.5-6.1-3.4-9.6-1.9-3.8,1.7-5.7,5.1-7.3,9.9,2-1.9,3.4-3.2,5.3-5.1-2,8.6-1.3,15.6,5.3,20.8-.3.3-.6.5-1,.8-2.5-2.3-5-4.6-7.8-7.3Z"/>
        <path class="st0" d="M271.6,296.4c-1.5,1.3-2.5,2.7-3.1,2.5-1-.2-2.4-1.5-2.5-2.5,0-.9,1.3-2.5,2.2-2.7.8-.1,1.9,1.3,3.4,2.6Z"/>
        <path class="st0" d="M278.4,308.3c-1-1.7-2.3-2.8-2.1-3.6.3-1,1.6-2.3,2.5-2.4.7,0,2.3,1.6,2.3,2.3-.1,1.1-1.4,2-2.7,3.7Z"/>
        <path class="st0" d="M283.8,337.2c-1.9,1.1-3,2.3-3.7,2.1-1-.3-1.8-1.6-2.7-2.5.9-.8,1.7-2.2,2.6-2.2,1,0,1.9,1.3,3.8,2.6Z"/>
        <path class="st0" d="M287.8,321.3c-1.9,1-2.9,1.9-3.9,1.9-.9,0-1.6-1.3-2.4-2,.9-.8,1.7-2.1,2.6-2.2.9,0,1.9,1.1,3.7,2.4Z"/>
        <path class="st0" d="M255.2,292.3c1.1,1.5,2.1,2.4,2.1,3.3,0,.9-1.1,1.7-1.8,2.6-.8-.8-2-1.5-2.3-2.5-.2-.7,1-1.8,1.9-3.4Z"/>
        <path class="st0" d="M259.1,346.2c-1.5,1.1-2.4,2.2-3.1,2.2-.8,0-1.6-1.3-2.4-2,.7-.8,1.4-2.1,2.2-2.1.8,0,1.7,1,3.3,2Z"/>
        <path class="st0" d="M269.4,343.2c1,1.5,2.1,2.5,2,3.3,0,.8-1.4,2-2.1,2-.8,0-2-1.3-2-2.1,0-.8,1.1-1.7,2.2-3.1Z"/>
        <path class="st0" d="M245,301.9c.9,1.2,1.8,2,1.7,2.6,0,.7-1,1.4-1.5,2.1-.6-.7-1.6-1.3-1.8-2.1-.1-.5.8-1.4,1.6-2.6Z"/>
        <path class="st0" d="M245.5,340.9c-.8-1.2-1.6-1.9-1.6-2.7,0-.5,1.1-1.6,1.5-1.5.7.1,1.7,1,1.8,1.6,0,.6-.9,1.4-1.7,2.6Z"/>
        <path class="st0" d="M93.5,338.7c-.7,1.9-1.2,3.7-2,5.4-1.1,2.4-2.4,2.5-3.8.2-.6-1-1.2-2.2-1.2-3.4,0-4.9-.1-9.9.1-14.8,0-1.3.9-2.9,1.9-3.7,1-.8,3.2-1.4,3.6-.9,1.2,1.3,2.1,3.1.3,5.2-1.2,1.3-1.3,3.6-2.2,5.2-2.3,4,.6,5,3.3,6.7Z"/>
        <path class="st0" d="M91.2,318.4c-2,1.5-3.8,2.9-5.5,4.2,0-.4.2-1.3.3-2.5-.8.5-1.4,1-2,1.4-.2-.1-.3-.2-.5-.4,1-1.4,1.7-3.2,2.9-4.3,2.5-2.1,3.8.2,4.8,1.6Z"/>
        <path class="st0" d="M83.3,331.8c.6,5.7.4,11.1,4.5,15-4-.9-6.7-9.5-4.5-15Z"/>
        <path class="st0" d="M94.1,332.1c-.1,1.5-.2,3-.4,4.7-2.5-.2-2.9-1.9-2.6-3.6.1-.8,1.4-1.3,2.1-2,.3.3.5.6.8.9Z"/>
        <path class="st0" d="M60.2,321c.3-.3.6-.5.8-.9,1.9-3.1,2.4-3.1,4.3.2-1.2,1.2-2.4,2.4-3.5,3.6-.4-.8-.9-1.9-1.5-3,0,0,0,0,0,0Z"/>
        <path class="st0" d="M59.8,334.8c.8,4.8,1.6,9.2,2.2,13.1-1.8-.9-3.4-7.9-2.2-13.1Z"/>
        <path class="st0" d="M255.4,322.2h11.6c-.2,5-2.2,8.3-4.9,8.3-3.1,0-5.9-3.5-6.8-8.3Z"/>
      </g>
    </g>
  </g>
</svg>